<svg xmlns="http://www.w3.org/2000/svg" viewBox="0 0 417.27 388.14"><defs><style>.a{isolation:isolate;}.b{fill:#91581f;}.c,.e,.h,.j{opacity:0.3;}.c,.e,.f,.h,.j{mix-blend-mode:multiply;}.d,.e{fill:#4aae42;}.f{opacity:0.13;}.g,.h{fill:#488427;}.i,.j{fill:#ffcc7d;}.k{fill:#fbf6f9;}.l{fill:#7d501b;}.m{fill:#7c4b39;}.n{fill:#fcbba4;}.o{fill:#ffc7b0;}.p,.q{fill:#081344;}.q{opacity:0.2;}.r{fill:#585668;}.s{fill:#ddd;}.t{fill:#767684;}.u{fill:#1f3468;}.v{fill:#aba9c4;}.w{fill:#6e89c4;}.x{fill:#ffc543;}.y{fill:#ea5444;}.z{fill:#a29fb0;}.aa{fill:#4a4960;}.ab{fill:#e79271;}.ac{fill:#a5483c;}.ad{fill:#84352f;}.ae{fill:#7f3954;}.af{fill:none;stroke:#081344;stroke-linecap:round;stroke-miterlimit:10;stroke-width:0.3px;}.ag{fill:#1c1c2d;}.ah{fill:#a0523a;}.ai{fill:#fff;}.aj{fill:#25253a;}.ak{fill:#b1aec1;}.al{fill:#716f82;}.am{fill:#2d2d3a;}.an{fill:#072050;}.ao{fill:#9f293b;}.ap{fill:#f14747;}.aq{fill:#fc4f42;}.ar{fill:#ce2d29;opacity:0.79;}</style></defs><title>island-detail</title><g class="a"><path class="b" d="M70.78,106.38c-.67.06-3.15,2-2.65,3.17a2.78,2.78,0,0,0,2.83,1.38c.76-.15,2.26-1.29,2-2.07S72.14,106.59,70.78,106.38Z"/><path class="b" d="M73.68,107.83c-.67,0-3.9,2.06-3.44,3.22s2.29,2.8,3.06,2.68,2.86-1.31,2.66-2.09S75,108.08,73.68,107.83Z"/><path class="b" d="M76.33,111.11c-.67,0-4.64,2.1-4.23,3.27s2.53,4.08,3.29,4,3.47-1.33,3.29-2.1S77.66,111.41,76.33,111.11Z"/><path class="b" d="M80.29,115.25c-.66,0-5.39,2.14-5,3.32s2.76,5.35,3.52,5.29,4.07-1.34,3.93-2.12S81.6,115.59,80.29,115.25Z"/><path class="b" d="M84,121c-.66,0-6.13,2.18-5.81,3.37s3,6.63,3.76,6.59,4.67-1.36,4.56-2.14S85.26,121.39,84,121Z"/><path class="b" d="M87.79,127.63c-.66-.06-6.87,2.22-6.6,3.42s3.23,7.9,4,7.89,5.28-1.38,5.19-2.16S89.07,128.08,87.79,127.63Z"/><path class="b" d="M91.94,135c-.65-.09-7.62,2.26-7.39,3.47s3.46,9.18,4.22,9.19,5.88-1.39,5.82-2.18S93.2,135.44,91.94,135Z"/><path class="b" d="M95.24,144.48c-.65-.11-8.36,2.3-8.18,3.52s3.69,10.45,4.45,10.5S98,157.09,98,156.3,96.48,145,95.24,144.48Z"/><path class="b" d="M99.77,155.36c-.65-.14-9.11,2.34-9,3.57s3.93,11.72,4.69,11.8,7.09-1.43,7.09-2.22S101,155.94,99.77,155.36Z"/><path class="b" d="M103.65,166.77c-.65-.16-9.85,2.39-9.76,3.62s4.16,13,4.92,13.1,7.69-1.44,7.72-2.24S104.85,167.4,103.65,166.77Z"/><path class="b" d="M108.29,179.2c-.64-.19-10.6,2.42-10.55,3.67s4.39,14.27,5.15,14.41,8.29-1.46,8.35-2.26S109.48,179.88,108.29,179.2Z"/><path class="b" d="M112.47,193.29c-.64-.21-11.34,2.47-11.34,3.72s4.63,15.55,5.39,15.71,8.9-1.48,9-2.28S113.64,194,112.47,193.29Z"/><g class="c"><path class="b" d="M68.79,107.79c-.53.59-.89,1.26-.67,1.76a2.78,2.78,0,0,0,2.83,1.38,2.32,2.32,0,0,0,.61-.25A24.39,24.39,0,0,0,68.79,107.79Z"/><path class="b" d="M70.75,109.74c-.42.46-.66.93-.51,1.31.45,1.16,2.29,2.8,3.06,2.68a2.26,2.26,0,0,0,.37-.1A28.7,28.7,0,0,0,70.75,109.74Z"/><path class="b" d="M73.12,112.8c-.69.55-1.18,1.13-1,1.58.41,1.17,2.53,4.08,3.29,4a3.74,3.74,0,0,0,.74-.21A43.09,43.09,0,0,0,73.12,112.8Z"/><path class="b" d="M75.83,117.53c-.42.37-.65.74-.56,1,.35,1.13,2.53,5,3.4,5.26C77.75,121.7,76.84,119.58,75.83,117.53Z"/><path class="b" d="M78.56,123.58c-.3.29-.46.56-.4.79.32,1.19,3,6.63,3.76,6.59H82C80.71,128.57,79.63,126.07,78.56,123.58Z"/><path class="b" d="M86,135.66a4,4,0,0,1-2.36-1.83c-.73-1.14-1.38-2.32-2-3.53-.32.27-.49.53-.44.75.27,1.2,3.23,7.9,4,7.89a13.38,13.38,0,0,0,2.67-.71C87.24,137.34,86.61,136.47,86,135.66Z"/><path class="b" d="M86.77,136.7c-1.3.61-2.31,1.25-2.22,1.72.23,1.21,3.46,9.18,4.22,9.19a17.41,17.41,0,0,0,3.49-.88A40.21,40.21,0,0,0,86.77,136.7Z"/><path class="b" d="M93.09,155.89c.85-3.19.14-6.88-1.33-10.48-2.28.79-4.81,1.89-4.7,2.59.18,1.22,3.69,10.45,4.45,10.5a9.17,9.17,0,0,0,1.71-.3A3.64,3.64,0,0,1,93.09,155.89Z"/><path class="b" d="M98,168.81c-1.37-2.56-1.46-5.32-1.78-8A4.36,4.36,0,0,1,93,157.4c-1.3.55-2.25,1.12-2.2,1.54.14,1.23,3.93,11.72,4.69,11.8A18.7,18.7,0,0,0,99,170,3.86,3.86,0,0,1,98,168.81Z"/><path class="b" d="M100.53,170.72A3.51,3.51,0,0,1,98,168.81c-.09-.17-.16-.33-.24-.5-2.08.72-3.89,1.53-3.85,2.09.09,1.24,4.16,13,4.92,13.1a21.59,21.59,0,0,0,4-.75C102.07,178.87,101.66,174.63,100.53,170.72Z"/><path class="b" d="M106.9,186.29a3.93,3.93,0,0,1-3.94-2.88c-.19-.92-.36-1.86-.52-2.81-2.45.77-4.72,1.68-4.7,2.27,0,1.25,4.39,14.27,5.15,14.41a26.07,26.07,0,0,0,4.85-.88A59,59,0,0,0,106.9,186.29Z"/><path class="b" d="M111.18,210.89c-.38-2.21-.25-5.29-.44-8a3.28,3.28,0,0,1-2.7-2.74c-.25-1.82-.31-3.82-.38-5.86-3.1.84-6.53,2-6.53,2.72,0,1.26,4.63,15.55,5.39,15.71a26.25,26.25,0,0,0,4.88-.81C111.32,211.58,111.24,211.24,111.18,210.89Z"/></g><path class="d" d="M70.42,104.12S84.4,93,103.18,92.35l-2.91,3.89s15.72-1.2,24.5,6.62c0,0-9.79,1.31-11.49,2.87,0,0,9.16,10.91,23.47,12.45,0,0-18.17,2.08-33.46-6,0,0,4,7.09,8.32,10.52,0,0-30.43-6.49-40.67-16.79,0,0,15.8-2.81,28.17,1.12C99.12,107,89.68,100,70.42,104.12Z"/><path class="e" d="M117.17,113c-4.95-1-9.58-2.93-14.45-4.17a3.82,3.82,0,0,1-4.48,2c-4.56-1.43-9.83-4.69-14.76-3.68a54.26,54.26,0,0,1-9.16,1.53c12.31,8.66,37.29,14,37.29,14-4.36-3.43-8.32-10.52-8.32-10.52,15.29,8.09,33.46,6,33.46,6A34.62,34.62,0,0,1,123.87,114C121.63,113.8,119.39,113.49,117.17,113Z"/><path class="d" d="M69.53,105.61S57.2,92.68,38.69,89.47L41,93.71s-15.41-3.34-25.17,3.2c0,0,9.52,2.64,11,4.42,0,0-10.56,9.55-25,9.12,0,0,17.71,4.55,34-1.37,0,0-4.89,6.48-9.69,9.28,0,0,31-2.26,42.59-11.05,0,0-15.27-5-28.06-2.75C40.7,104.55,51,98.89,69.53,105.61Z"/><path class="e" d="M26.17,118.35s30.08-2.2,42-10.66A4.3,4.3,0,0,1,67,108c-9.2,1-18.23,3.17-27.5,3.59-3.18.14-4.94-3.91-3.35-6.24-2.46,1-4.88,2-7.25,3.08a75.71,75.71,0,0,1-11.46,3.69,54.9,54.9,0,0,0,18.4-3S31,115.55,26.17,118.35Z"/><path class="d" d="M70.1,103.05s12.82-15.17,32.23-14.32c0,0-2.05-3-3.66-3,0,0,10.73-9,26.93-4.69,0,0-3.15-7.48-22-7,0,0,1.2-4.24,5.07-5.86,0,0-19.1-1.25-29.5,9.56,0,0-2.16-2.84-.95-5.09,0,0-15.45,9.72-9.37,30.83,0,0,0-16.11,12.7-21.67C81.52,81.77,73.09,88.66,70.1,103.05Z"/><path class="e" d="M112.08,77.11c-5.56,0-10.71,1.73-15.91,3.54a4.16,4.16,0,0,1-1.36.23c-9.62,3.24-18.76,8.39-23.46,17.43a45.7,45.7,0,0,0-1.26,4.75s12.82-15.17,32.23-14.32c0,0-2.05-3-3.66-3,0,0,10.73-9,26.93-4.69a4.93,4.93,0,0,0-.69-1C120.61,79.16,116.44,77.09,112.08,77.11Z"/><path class="d" d="M68.89,110.66s-6.3,18.83,4.52,35c0,0-3.61-.21-4.48-1.56,0,0-2.09,13.83,10,25.45,0,0-8,1.2-17.46-15.17,0,0-3,3.22-2.37,7.37,0,0-11-15.67-7.17-30.18,0,0-3.54-.37-4.84,1.83,0,0,.27-18.25,21.47-24,0,0-13.77,8.37-11.91,22.11C56.64,131.47,58.14,120.7,68.89,110.66Z"/><path class="e" d="M68.92,144.08c.88,1.35,4.48,1.56,4.48,1.56-6.23-9.29-6.78-19.46-6.13-26.43-1.09,5.26-1.64,10.65,0,15.76.93,2.94-1.59,5-4.06,4.89A40.21,40.21,0,0,0,63.73,158c8.41,12.51,15.18,11.51,15.18,11.51C66.83,157.91,68.92,144.08,68.92,144.08Z"/><path class="f" d="M97.09,304.73s81,43.34,208.53,7.79c0,0-19.27,50-89,51.71s-76.5-15.87-102-29.75S97.09,304.73,97.09,304.73Z"/><path class="f" d="M279.29,388.14c13.94-5.22,26.31-21.46,28.6-61.3,0,0-18.13,52.7-73.1,52.7a73.19,73.19,0,0,0,18.89,8.61Z"/><path class="g" d="M304.49,40s23.76-9.49,49.79-2.65l-5.59,4.13s22.06,4.83,30.88,19.17c0,0-14-2.23-16.94-.79,0,0,8.07,18.74,27.08,26.74,0,0-25.78-4.63-43.42-22,0,0,2.51,11.35,7.09,17.85,0,0-39.07-21.43-48.88-39.77,0,0,22.83,2.65,38.18,13.14C342.67,55.82,332.61,42.31,304.49,40Z"/><path class="h" d="M370.64,72.24c-5.77-2.17-11.35-4.73-17.05-7.15-1.39-.59-5.44-2.3-6-2.55l-.64-.28c-4.8,2.81-11.15,3.17-15.92.09a143.93,143.93,0,0,0-20.56-11.48c14.44,16,42.9,31.6,42.9,31.6-4.57-6.5-7.09-17.85-7.09-17.85,17.64,17.4,43.42,22,43.42,22A51.16,51.16,0,0,1,370.64,72.24Z"/><path class="g" d="M302.66,41.7S291.07,18.9,267,6.87l1.47,6.8s-19.76-10.93-35.85-6c0,0,12,7.54,13.25,10.58,0,0-18.42,8.75-38,2.23,0,0,22.42,13.53,47.16,12.1,0,0-9.38,6.87-17.11,8.74,0,0,43.5,9.67,63,2.37,0,0-18.91-13.08-37.36-15.32C263.54,28.38,280,24.87,302.66,41.7Z"/><path class="h" d="M253.82,32.65A14.68,14.68,0,0,1,252.2,28c-3.31.12-6.62.24-9.94.29a123.39,123.39,0,0,1-19.79-1.1C230.85,30.25,242,33.1,253.82,32.65Z"/><path class="h" d="M294.14,43.21,292.89,43l-.53-.06-3.09-.33q-3.94-.37-7.89-.66c-4.58-.32-9.17-.61-13.75-1a17.16,17.16,0,0,1-13.48-7.75c-2.52,1.74-9.91,6.59-16.21,8.11,0,0,43.5,9.67,63,2.37l-.58-.39A21.61,21.61,0,0,1,294.14,43.21Z"/><path class="g" d="M304.49,38.44s23.82-15.53,50.11-6.37c0,0-1.59-4.92-3.78-5.65,0,0,18.41-7.89,38.88,4.65,0,0-1.24-11.55-27.33-18.72,0,0,3.38-5.33,9.36-6,0,0-25.69-9.58-44.41,1,0,0-1.79-4.78.8-7.37,0,0-25.2,7-25.55,38.44,0,0,6.63-22.11,26.34-24.5C328.91,13.94,314.52,19.92,304.49,38.44Z"/><path class="h" d="M383.85,23.55l-1.06-.5-.53-.2a85.32,85.32,0,0,0-8.84-2.76c-2.88-.73-5.76-1.49-8.64-2.21a14.92,14.92,0,0,1-9.9,3.57,77.33,77.33,0,0,0-7.82.09c-1.14.08-2.28.18-3.41.3-.09,0-.57.11-1.46.24a89.74,89.74,0,0,0-13,3.43c-1.41.5-2.83,1-4.22,1.55l-1,.39c-1.68.75-3.36,1.51-5,2.33-4.21,2.08-8.32,4.32-12.39,6.66a15.56,15.56,0,0,1-1.41.71c-.24.42-.48.84-.71,1.27,0,0,23.82-15.53,50.11-6.37,0,0-1.59-4.92-3.78-5.65,0,0,18.41-7.89,38.88,4.65,0,0-.31-2.79-3.7-6.47C385.29,24.24,384.57,23.89,383.85,23.55Z"/><path class="f" d="M16.84,242.53c-23.57,13.1,74.07,52.36,154.26,67.3,65,12.1,231.39-17.94,231.39-61.88,0,0-90.23-14.55-139.55-19.93S33,233.56,16.84,242.53Z"/><path class="i" d="M16.84,247.94c-23.57-13.1,91.48-41.26,154.26-61.88S402.49,204,402.49,247.94c0,0-92.38-5.38-141.7,0S33,256.91,16.84,247.94Z"/><path class="j" d="M361.81,210.11a20.76,20.76,0,0,1-3.76,9,48.83,48.83,0,0,1-20.5,16.13,69.91,69.91,0,0,1-36.32,5.55c-13.46-1.57-26.41-5.11-39.71-7.47-.57-.1-5.87-.86-3.62-.62-1.25-.14-2.51-.29-3.77-.37-3.2-.2-6.41-.24-9.61-.21-6.83.05-13.66.33-20.49.62-13.81.59-27.64.34-41.44,1.08-3.81.2-7.63.44-11.43.82-1.62.16-3.25.32-4.87.52l-1.24.15-1,.16c-6.44,1-12.67,2.68-19,4.13-14.17,3.24-28.81,5.78-43.36,6.32-14.15.53-28.39-.08-42.56-.21-7.12-.06-14.46-.91-21.55-.17l-1.54.15-.87.13-4.93.71a105.14,105.14,0,0,1-12.38,1.19c-.47,0-.93,0-1.39,0l.4.25c16.14,9,194.62,5.38,243.95,0s141.7,0,141.7,0C402.49,234.27,386.18,221.12,361.81,210.11Z"/><path class="k" d="M402.49,247.94c-16.11-.09-32.21-.23-48.3-.16q-12.06,0-24.12.17c-8,.13-16.07.23-24.09.49s-16,.63-24,1.06c-4,.27-8,.55-11.95.88l-5.94.61-3,.3-3,.34c-8.08.87-16.14,1.39-24.2,1.91s-16.11.92-24.17,1.29q-24.17.94-48.34,1.35-12.09.14-24.18.17T113,256.19c-8.06-.13-16.12-.26-24.18-.54s-16.12-.61-24.17-1.06-16.1-1.05-24.13-1.91c-4-.44-8-.93-12-1.58-2-.34-4-.71-5.95-1.19a23.12,23.12,0,0,1-5.72-2,22.89,22.89,0,0,0,5.82,1.45c2,.29,4,.49,6,.64,4,.34,8,.54,12,.67q12,.39,24.1.37T88.88,251c8-.11,16.08-.18,24.11-.36l24.11-.53q12.06-.28,24.11-.68c16.07-.46,32.14-1,48.19-1.72s32.12-1.41,48-2.78l3-.27,3-.25,6.08-.49c4.05-.25,8.1-.45,12.15-.64s8.09-.29,12.13-.33,8.08-.08,12.12,0c16.15,0,32.27.6,48.37,1.42S386.46,246.27,402.49,247.94Z"/><path class="l" d="M304,43.28c-.94-.19-5.15,1.47-4.94,3.26a4,4,0,0,0,3.31,3c1.11.11,3.63-.84,3.63-2S305.84,44.12,304,43.28Z"/><path class="l" d="M307.43,46.46c-.93-.23-6.19,1.22-6,3s2,4.79,3.09,4.93,4.47-.62,4.51-1.76S309.18,47.36,307.43,46.46Z"/><path class="l" d="M309.72,52c-.92-.26-7.23,1-7.15,2.75s1.79,6.63,2.87,6.82,5.3-.39,5.38-1.53S311.43,53,309.72,52Z"/><path class="l" d="M313.45,59.36c-.9-.29-8.27.72-8.26,2.49s1.58,8.48,2.66,8.7,6.14-.17,6.26-1.3S315.11,60.37,313.45,59.36Z"/><path class="l" d="M316.13,68.76c-.89-.32-9.31.47-9.36,2.24s1.38,10.32,2.44,10.58,7,.06,7.14-1.06S317.75,69.83,316.13,68.76Z"/><path class="l" d="M318.64,79.44c-.87-.36-10.35.22-10.46,2s1.18,12.17,2.22,12.47,7.8.29,8-.83S320.21,80.57,318.64,79.44Z"/><path class="l" d="M321.32,91.19c-.86-.39-11.38,0-11.57,1.72s1,14,2,14.35,8.64.51,8.89-.6S322.85,92.38,321.32,91.19Z"/><path class="l" d="M321.92,105.61c-.85-.42-12.42-.28-12.67,1.47s.77,15.86,1.79,16.23,9.47.74,9.76-.36S323.41,106.86,321.92,105.61Z"/><path class="l" d="M323.66,122.4c-.83-.45-13.46-.53-13.78,1.21s.56,17.7,1.57,18.12,10.31,1,10.64-.13S325.11,123.71,323.66,122.4Z"/><path class="l" d="M324.28,139.66c-.82-.49-14.5-.78-14.88,1s.36,19.54,1.36,20,11.14,1.18,11.52.1S325.68,141,324.28,139.66Z"/><path class="l" d="M325.53,158.62c-.8-.52-15.54-1-16,.7s.15,21.39,1.14,21.88,12,1.41,12.39.34S326.89,160,325.53,158.62Z"/><path class="l" d="M325.47,179.67c-.79-.55-16.58-1.29-17.09.44s-.05,23.23.92,23.77,12.81,1.63,13.27.57S326.78,181.15,325.47,179.67Z"/><g class="c"><path class="l" d="M306,47.36c0-1.21-.31-3.29-2-4.08a2,2,0,0,0-.7.05,9.27,9.27,0,0,0,0,1A23.1,23.1,0,0,1,306,47.36Z"/><path class="l" d="M308.87,53a.69.69,0,0,0,.12-.33c0-1.15.19-5.27-1.55-6.17a5.22,5.22,0,0,0-1.89.25A18.13,18.13,0,0,1,308.87,53Z"/><path class="l" d="M309.54,56.2a16.66,16.66,0,0,1-.13,4.9c.79-.26,1.39-.6,1.42-1,.08-1.14.59-7.08-1.11-8a3.82,3.82,0,0,0-1.14,0A18.73,18.73,0,0,1,309.54,56.2Z"/><path class="l" d="M308.94,63.13c.14.17.27.34.43.51a11.91,11.91,0,0,1,3.52,6.44c.7-.21,1.19-.48,1.23-.83.13-1.13,1-8.88-.66-9.89a13.18,13.18,0,0,0-3.85.35A17.83,17.83,0,0,1,308.94,63.13Z"/><path class="l" d="M312.11,77.67a5.93,5.93,0,0,0,.75,3.92c1.73-.15,3.41-.48,3.5-1.07.17-1.12,1.4-10.68-.22-11.75a13.52,13.52,0,0,0-3.52.12C313.36,71.47,313,74.21,312.11,77.67Z"/><path class="l" d="M315.6,87.24a43.8,43.8,0,0,1,1.09,6.55c1-.16,1.65-.4,1.72-.74.21-1.11,1.8-12.48.23-13.61a25.06,25.06,0,0,0-6.47.33C312.8,82.26,315,85,315.6,87.24Z"/><path class="l" d="M316.9,98.18c0,3.11-.17,6.22-.32,9.32,2-.06,3.95-.29,4.07-.84.25-1.11,2.2-14.29.67-15.48a21.45,21.45,0,0,0-5,0A44.52,44.52,0,0,1,316.9,98.18Z"/><path class="l" d="M316.48,109.48c-.08,1.55-.68,2.92-.36,4.5a19.31,19.31,0,0,1,.72,5c-.11,1.47-.7,3.28-.27,4.72,2.14,0,4.1-.21,4.23-.73.29-1.1,2.6-16.09,1.12-17.34a23.83,23.83,0,0,0-5.25-.15Q316.58,107.47,316.48,109.48Z"/><path class="l" d="M316.58,123.72a31.38,31.38,0,0,1,1.53,4.18c.42,2.67-.55,4.4-1.71,6.75-1,2.06-.16.74,1.32,1.67a5.83,5.83,0,0,1,2.35,2.26,6.83,6.83,0,0,1,.62,3.54c.79-.1,1.33-.26,1.41-.51.33-1.09,3-17.89,1.56-19.2a34.08,34.08,0,0,0-7.24-.21A4.43,4.43,0,0,0,316.58,123.72Z"/><path class="l" d="M320,144.78c-1.07,2.77-2.52,4.22-.9,6.95,1.1,1.84.48,5-.56,6.71-.36.6,0,1.66.6,2.83,1.68,0,3-.18,3.11-.56.37-1.08,3.41-19.69,2-21.06a17.73,17.73,0,0,0-3.92-.35A7.5,7.5,0,0,1,320,144.78Z"/><path class="l" d="M325.53,158.62a33.81,33.81,0,0,0-6.81-.49c-.06.11-.11.22-.16.32-.86,1.45,2.53,5.51,2.71,7.56a9.08,9.08,0,0,1-.75,4.75,5,5,0,0,1,2.19,4.24c-.19,2.53-1.55,4.5-2.08,6.93,0,0,0,.07,0,.1,1.36,0,2.35-.18,2.46-.49C323.49,180.46,326.89,160,325.53,158.62Z"/><path class="l" d="M325.47,179.67a17.67,17.67,0,0,0-3.95-.47,17.79,17.79,0,0,0-.89,2.73c-.69,3.2,0,6.3-1.19,9.48s-2.27,6.72-4.45,9.59a2.63,2.63,0,0,1-4.78-2c.09-.61.21-1.21.33-1.81l0-.09c-.12-.52-.22-1-.32-1.56l0,.07a2.84,2.84,0,0,1-1.69,1.63c.2,3.64.48,6.46.82,6.65,1,.54,12.81,1.63,13.27.57S326.78,181.15,325.47,179.67Z"/></g><path class="k" d="M267.12,261.73l1.42-.35c.93-.23,2.28-.57,4-1s3.85-.85,6.28-1.33,5.17-1,8.18-1.53,6.26-1.08,9.72-1.58,7.11-1,10.89-1.5,7.7-.94,11.69-1.29,8-.75,12.1-1l6.08-.38,6-.28q3-.14,5.95-.23l5.81-.07c1.91,0,3.78-.06,5.62-.06l5.38.11c3.5.06,6.8.13,9.85.35s5.84.34,8.31.51,4.62.46,6.39.64c3.54.38,5.55.63,5.55.63s-2,.05-5.59.08l-6.4,0c-2.47.07-5.26.14-8.29.18s-6.32.18-9.8.27l-5.35.17c-1.82.11-3.69.17-5.58.26l-5.77.25c-1.95.13-3.92.25-5.91.35l-6,.34-6,.44c-4,.22-8.07.58-12,.88l-11.66,1-10.9,1-9.76,1-14.62,1.53Z"/><path class="k" d="M52.38,259.63l2.2.11c1.43.09,3.54.14,6.21.27s5.91.29,9.63.39l12.5.44,14.79.35c5.24.13,10.77.29,16.5.31s11.64.08,17.64.2l4.52.08,4.55,0,9.14-.07,18.22,0,17.64-.37c5.72-.14,11.25-.21,16.5-.29l3.88-.06c1.27,0,2.53-.11,3.76-.14l7.14-.27c9.15-.36,16.79-.57,22.14-.7l8.41-.17-8.36.88c-5.32.53-12.94,1.27-22.08,2-4.57.36-9.52.92-14.78,1.09s-10.79.54-16.52.77l-8.73.37c-3,.12-5.94.28-8.95.31l-18.27.15H136.33l-4.53-.11c-6-.13-12-.35-17.69-.51s-11.27-.49-16.52-.8-10.21-.6-14.79-1l-12.48-1.12c-3.71-.31-6.94-.74-9.6-1s-4.74-.57-6.16-.78Z"/><path class="k" d="M8.59,236.47s-.33.16-.91.51a23.09,23.09,0,0,0-2.4,1.66,11.52,11.52,0,0,0-2.88,3.24,4.52,4.52,0,0,0-.61,2.32v.31l.06.31c0,.19.06.44.12.59a9,9,0,0,0,.53,1.43,13.15,13.15,0,0,0,4.13,4.78l1.46,1c.51.32,1.07.6,1.62.9a35.61,35.61,0,0,0,3.46,1.67c1.17.58,2.49,1,3.75,1.44s2.62.84,4,1.26l2,.61c.68.2,1.37.35,2.06.52l4.16,1,4.2.89c1.4.3,2.79.6,4.19.82,2.8.43,5.52,1.09,8.2,1.44s5.25.85,7.71,1.23,4.79.68,6.94,1,4.12.62,5.87.86,3.28.48,4.53.67c2.51.39,4,.65,4,.65s-1.46,0-4,.06c-1.27,0-2.82,0-4.59,0l-2.83,0c-1,0-2-.09-3.13-.14-2.18-.11-4.54-.22-7-.4s-5.13-.46-7.84-.76l-2.06-.22-2.08-.3q-2.09-.29-4.23-.63c-1.42-.2-2.85-.49-4.28-.78l-4.31-.85L24,262.45c-.71-.19-1.42-.36-2.12-.57l-2.09-.67a40,40,0,0,1-4.09-1.45c-1.32-.57-2.66-1-3.9-1.7a29.47,29.47,0,0,1-3.65-2c-.57-.38-1.15-.72-1.7-1.12l-1.57-1.26a14.27,14.27,0,0,1-4.38-6.17,10.69,10.69,0,0,1-.42-1.61A7.69,7.69,0,0,1,0,245l0-.44.06-.44a6.07,6.07,0,0,1,1.18-2.94,11.44,11.44,0,0,1,3.64-3.09,17.75,17.75,0,0,1,2.71-1.25C8.24,236.57,8.59,236.47,8.59,236.47Z"/><path class="k" d="M409,236.47a5.8,5.8,0,0,1,.89.17,10.39,10.39,0,0,1,2.23.88,10.51,10.51,0,0,1,2.78,2.07,8.51,8.51,0,0,1,2.1,3.64,7.41,7.41,0,0,1-.17,4.3,8.47,8.47,0,0,1-1.86,3,7.3,7.3,0,0,1-1,.94,6.29,6.29,0,0,1-.84.62c-.49.31-.78.46-.78.46s.13-.32.38-.82.59-1.22.94-2a5,5,0,0,0,.25-.65c.07-.23.18-.44.24-.68a10.83,10.83,0,0,0,.36-1.45,7.06,7.06,0,0,0-.13-3,13.48,13.48,0,0,0-3.21-5.18c-.62-.67-1.17-1.24-1.56-1.64Z"/><path class="g" d="M224.11,83.65s-17.5-7-36.67-1.95l4.12,3S175.3,88.3,168.81,98.86c0,0,10.29-1.64,12.48-.58,0,0-5.94,13.8-19.94,19.7,0,0,19-3.41,32-16.22,0,0-1.85,8.36-5.22,13.15,0,0,28.78-15.79,36-29.3,0,0-16.82,2-28.13,9.68C196,95.29,203.4,85.33,224.11,83.65Z"/><path class="h" d="M175.39,107.38c4.25-1.6,8.36-3.48,12.56-5.27l4.42-1.88.47-.21a11.38,11.38,0,0,0,11.73.07,106,106,0,0,1,15.15-8.46c-10.64,11.77-31.6,23.27-31.6,23.27,3.37-4.79,5.22-13.15,5.22-13.15-13,12.82-32,16.22-32,16.22A37.69,37.69,0,0,0,175.39,107.38Z"/><path class="g" d="M225.46,84.88s8.54-16.8,26.27-25.66l-1.09,5s14.56-8.05,26.41-4.4c0,0-8.82,5.55-9.76,7.8,0,0,13.57,6.45,28,1.64,0,0-16.52,10-34.74,8.91,0,0,6.91,5.06,12.6,6.44,0,0-32,7.12-46.39,1.74,0,0,13.93-9.63,27.52-11.29C254.28,75.07,242.14,72.48,225.46,84.88Z"/><path class="h" d="M261.44,78.21a10.81,10.81,0,0,0,1.19-3.43c2.44.09,4.88.18,7.32.22a90.9,90.9,0,0,0,14.58-.81A61.75,61.75,0,0,1,261.44,78.21Z"/><path class="h" d="M231.74,86l.92-.15.39,0,2.28-.24q2.9-.27,5.81-.48c3.38-.24,6.76-.45,10.13-.72a12.64,12.64,0,0,0,9.93-5.71c1.86,1.28,7.3,4.85,11.94,6,0,0-32,7.12-46.39,1.74l.42-.28A15.92,15.92,0,0,0,231.74,86Z"/><path class="g" d="M224.11,82.48S206.56,71,187.2,77.78c0,0,1.17-3.63,2.79-4.16,0,0-13.56-5.81-28.64,3.43,0,0,.91-8.51,20.13-13.79,0,0-2.49-3.93-6.9-4.38,0,0,18.93-7.06,32.72.72,0,0,1.32-3.52-.59-5.43,0,0,18.56,5.13,18.82,28.31,0,0-4.88-16.28-19.41-18C206.12,64.43,216.72,68.83,224.11,82.48Z"/><path class="h" d="M165.65,71.51l.78-.37.39-.15a62.85,62.85,0,0,1,6.51-2c2.12-.54,4.24-1.1,6.37-1.63A11,11,0,0,0,187,70a57,57,0,0,1,5.76.07c.84.06,1.68.13,2.51.22l1.07.18A66.11,66.11,0,0,1,205.91,73c1,.37,2.08.73,3.11,1.14l.71.29c1.24.55,2.47,1.11,3.69,1.71,3.1,1.53,6.13,3.18,9.13,4.9a11.46,11.46,0,0,0,1,.53c.18.31.35.62.53.94,0,0-17.55-11.44-36.92-4.69,0,0,1.17-3.63,2.79-4.16,0,0-13.56-5.81-28.64,3.43,0,0,.23-2.05,2.73-4.77C164.59,72,165.12,71.76,165.65,71.51Z"/><path class="l" d="M224.44,86c.7-.14,3.8,1.08,3.64,2.4a2.93,2.93,0,0,1-2.44,2.25c-.82.08-2.68-.62-2.68-1.47S223.12,86.67,224.44,86Z"/><path class="l" d="M221.95,88.39c.69-.17,4.56.9,4.46,2.21s-1.47,3.53-2.28,3.63-3.29-.45-3.32-1.3S220.66,89,221.95,88.39Z"/><path class="l" d="M220.26,92.51c.67-.19,5.33.72,5.27,2s-1.32,4.89-2.12,5-3.9-.29-4-1.13S219,93.21,220.26,92.51Z"/><path class="l" d="M217.51,97.89c.66-.21,6.09.53,6.08,1.84s-1.17,6.24-2,6.41-4.52-.12-4.61-1S216.29,98.64,217.51,97.89Z"/><path class="l" d="M215.54,104.81c.65-.24,6.86.35,6.9,1.65s-1,7.6-1.8,7.8-5.13,0-5.26-.78S214.35,105.61,215.54,104.81Z"/><path class="l" d="M213.69,112.68c.64-.26,7.62.16,7.71,1.46s-.87,9-1.64,9.18-5.75.21-5.9-.61S212.53,113.52,213.69,112.68Z"/><path class="l" d="M211.72,121.34c.63-.29,8.39,0,8.52,1.27s-.71,10.32-1.48,10.57-6.36.38-6.55-.44S210.59,122.21,211.72,121.34Z"/><path class="l" d="M211.27,132c.62-.31,9.15-.21,9.34,1.08s-.56,11.68-1.32,12-7,.54-7.19-.27S210.18,132.88,211.27,132Z"/><path class="l" d="M210,144.33c.61-.33,9.92-.39,10.15.89s-.41,13-1.16,13.35-7.59.71-7.84-.1S208.93,145.29,210,144.33Z"/><path class="l" d="M209.53,157c.6-.36,10.68-.58,11,.7s-.26,14.4-1,14.73-8.21.87-8.48.08S208.5,158,209.53,157Z"/><path class="l" d="M208.61,171c.59-.38,11.45-.76,11.78.51s-.11,15.76-.84,16.12-8.82,1-9.13.25S207.61,172.06,208.61,171Z"/><path class="l" d="M208.66,186.52c.58-.41,12.21-.95,12.59.32s0,17.11-.68,17.51-9.44,1.2-9.77.42S207.69,187.61,208.66,186.52Z"/><g class="c"><path class="l" d="M223,89c0-.89.23-2.42,1.47-3a1.48,1.48,0,0,1,.52,0,6.83,6.83,0,0,1,0,.76A17,17,0,0,0,223,89Z"/><path class="l" d="M220.89,93.18a.51.51,0,0,1-.08-.24c0-.85-.14-3.88,1.14-4.55a3.84,3.84,0,0,1,1.39.18A13.36,13.36,0,0,0,220.89,93.18Z"/><path class="l" d="M220.39,95.57a12.27,12.27,0,0,0,.1,3.61c-.58-.19-1-.44-1-.75-.06-.84-.44-5.21.82-5.92a2.81,2.81,0,0,1,.84,0A13.8,13.8,0,0,0,220.39,95.57Z"/><path class="l" d="M220.84,100.67c-.1.13-.2.25-.31.37a8.77,8.77,0,0,0-2.59,4.74c-.51-.15-.88-.36-.91-.61-.09-.83-.73-6.54.49-7.29a9.71,9.71,0,0,1,2.84.25A13.14,13.14,0,0,0,220.84,100.67Z"/><path class="l" d="M218.5,111.38a4.37,4.37,0,0,1-.55,2.89c-1.27-.11-2.51-.36-2.58-.79-.12-.83-1-7.87.16-8.66a10,10,0,0,1,2.6.09C217.58,106.81,217.84,108.83,218.5,111.38Z"/><path class="l" d="M215.93,118.43a32.26,32.26,0,0,0-.8,4.83c-.71-.12-1.22-.29-1.26-.55-.15-.82-1.33-9.2-.17-10a18.46,18.46,0,0,1,4.77.24C218,114.76,216.35,116.75,215.93,118.43Z"/><path class="l" d="M215,126.49c0,2.29.12,4.58.24,6.87-1.5,0-2.91-.22-3-.62-.18-.82-1.62-10.52-.5-11.4a15.8,15.8,0,0,1,3.65,0A32.79,32.79,0,0,0,215,126.49Z"/><path class="l" d="M215.28,134.81c.06,1.14.5,2.15.27,3.32a14.23,14.23,0,0,0-.53,3.67c.08,1.08.52,2.42.2,3.47-1.57,0-3-.16-3.12-.54-.21-.81-1.92-11.85-.82-12.77a17.56,17.56,0,0,1,3.87-.11Q215.21,133.33,215.28,134.81Z"/><path class="l" d="M215.21,145.3a23.11,23.11,0,0,0-1.13,3.08c-.31,2,.41,3.24,1.26,5,.75,1.52.12.54-1,1.23a4.29,4.29,0,0,0-1.73,1.66,5,5,0,0,0-.46,2.6c-.59-.07-1-.19-1-.38-.25-.8-2.21-13.18-1.15-14.14a25.11,25.11,0,0,1,5.33-.16A3.26,3.26,0,0,1,215.21,145.3Z"/><path class="l" d="M212.68,160.82c.79,2,1.86,3.11.66,5.12-.81,1.36-.35,3.67.41,4.95.26.44,0,1.22-.44,2.08-1.24,0-2.2-.14-2.29-.41-.27-.8-2.51-14.51-1.48-15.51a13.06,13.06,0,0,1,2.89-.26A5.53,5.53,0,0,0,212.68,160.82Z"/><path class="l" d="M208.61,171a24.91,24.91,0,0,1,5-.36c0,.08.08.16.12.23.64,1.07-1.87,4.06-2,5.57a6.69,6.69,0,0,0,.55,3.5,3.7,3.7,0,0,0-1.61,3.13c.14,1.87,1.14,3.32,1.53,5.1,0,0,0,0,0,.07-1,0-1.73-.13-1.82-.36C210.11,187.1,207.61,172.06,208.61,171Z"/><path class="l" d="M208.66,186.52a13,13,0,0,1,2.91-.35,13.1,13.1,0,0,1,.66,2c.51,2.36,0,4.64.88,7s1.67,5,3.28,7.07a1.93,1.93,0,0,0,3.52-1.48c-.07-.45-.15-.89-.24-1.33l0-.07c.09-.38.16-.77.23-1.15l0,.05a2.09,2.09,0,0,0,1.25,1.2c-.14,2.68-.35,4.76-.61,4.9-.72.39-9.44,1.2-9.77.42S207.69,187.61,208.66,186.52Z"/></g><path class="m" d="M255,99.45l2.69,1.66a4.4,4.4,0,0,1,1.6,5.75,6.51,6.51,0,0,0-.31.64c.1-.12-4.12-8-4.12-8"/><rect class="n" x="244.34" y="113.99" width="6.03" height="11.18" rx="2.32" ry="2.32"/><path class="m" d="M259,107.5c.06.53-2.41,1.42-2.43,2l.4,1.12c-3-1.1-.36.58-.36.58-.9,2.67-.59,4.15-3.16,5.16a9.44,9.44,0,0,1-4.15.63c-2-.14-3.71.48-5.14-.2a3,3,0,0,1-.84-.59,9.57,9.57,0,0,1-1.33-1.65c-.14-.24-.29-.47-.41-.72-.78-1.5-2.36-5.89-2.23-7.7.36-5.09,5.23-8.5,10.85-8.11l.43,0a9.48,9.48,0,0,1,7.21,4.15l.24.38h0a16.27,16.27,0,0,1,.7,3.92A5.77,5.77,0,0,1,259,107.5Z"/><path class="o" d="M258.76,109.13l-.07,1.4-.12,2.32-.19.82c0,.36-.2,2.28-.27,2.63-.64,3.28-2.79,4-6.13,4.39l-.3,0a7.4,7.4,0,0,1-2.14-.1,7.57,7.57,0,0,1-1.9-.61h0a7.84,7.84,0,0,1-3.48-3.23,7.58,7.58,0,0,1-1-3.53c0-.09,0-.17,0-.27a2.73,2.73,0,0,1,0-.32v-.31l0-.66.11-2.28v0h0l0-.42,0-.33,0-.3v-.08a6.15,6.15,0,0,1,.29-1.52,7.31,7.31,0,0,1,.37-1l.06-.15a6.79,6.79,0,0,1,.4-.77h0a7.79,7.79,0,0,1,2.21-2.38c.18-.13.36-.25.55-.36a8,8,0,0,1,4.45-1.09,6.94,6.94,0,0,1,3.42,1.12,7.86,7.86,0,0,1,1.76,1.44,7.5,7.5,0,0,1,1.55,2.74l.05.17a5.77,5.77,0,0,1,.22,1A9.62,9.62,0,0,1,258.76,109.13Z"/><path class="m" d="M255.94,102.2c1.64,4.52-2.68,4.15-2.88,6.22a19.52,19.52,0,0,0-.17,2.28l-.33,1.06a.78.78,0,0,1-1.53-.22v0l0-1.69-.84,2.23a12.78,12.78,0,0,1-6,6.83,12.16,12.16,0,0,1-5.27-10.28,15.7,15.7,0,0,1,.1-1.78,12,12,0,0,1,.28-1.56c2.18-8.88,13.09-5.85,14.14-5.46A8.12,8.12,0,0,1,255.94,102.2Z"/><path class="o" d="M259.69,113.91s0,.12,0,.12c0,.49-.44.88-1.49.85l.15-3.81A6.64,6.64,0,0,1,259.69,113.91Z"/><path class="m" d="M259.12,109.3h-2.33a.49.49,0,0,1-.49-.49h0a.49.49,0,0,1,.49-.49h2.33a.49.49,0,0,1,.49.49h0A.49.49,0,0,1,259.12,109.3Z"/><path class="p" d="M257.81,111.05h0a.35.35,0,0,1-.35-.35v-.52a.35.35,0,0,1,.35-.35h0a.35.35,0,0,1,.35.35v.52A.35.35,0,0,1,257.81,111.05Z"/><path class="q" d="M247.54,116.35a12.82,12.82,0,0,1-3.35,2.53,12.16,12.16,0,0,1-5.27-10.28,15.7,15.7,0,0,1,.1-1.78,12,12,0,0,1,.28-1.56,17,17,0,0,0,2.41,6C244.11,115.11,246.69,116.11,247.54,116.35Z"/><path class="m" d="M258.18,116.06l-.07,2.67c0,2.28-2.69,3.19-4.7,3l-3.19-.34.32-2.76.87-5.29L250,109.36l2.89,1.2h0a5,5,0,0,0,5.17,5.53Z"/><path class="n" d="M250.84,109.26a.58.58,0,0,1,.58.59v3.72h-.83a2.24,2.24,0,0,1-2-2.22,2.06,2.06,0,0,1,.65-1.49,2.11,2.11,0,0,1,1.38-.58h.28Z"/><rect class="p" x="230.36" y="167.35" width="18.34" height="3.38" transform="translate(479.07 338.08) rotate(180)"/><rect class="r" x="278.31" y="124.14" width="12.61" height="27.13"/><path class="s" d="M264.53,115.38h38.15a1.65,1.65,0,0,1,1.65,1.65v25.32a0,0,0,0,1,0,0H262.88a0,0,0,0,1,0,0V117A1.65,1.65,0,0,1,264.53,115.38Z"/><path class="s" d="M262.49,141.58h41.45a0,0,0,0,1,0,0v1.34a3.49,3.49,0,0,1-3.49,3.49H266a3.49,3.49,0,0,1-3.49-3.49v-1.34A0,0,0,0,1,262.49,141.58Z"/><path class="t" d="M302.91,117v25.33H261.45V117a1.65,1.65,0,0,1,1.65-1.65h38.15A1.65,1.65,0,0,1,302.91,117Z"/><rect class="u" x="262.96" y="116.83" width="38.44" height="23.35" rx="0.15" ry="0.15"/><path class="v" d="M302.91,141.58v1.34a3.49,3.49,0,0,1-3.49,3.49H264.95a3.49,3.49,0,0,1-3.49-3.49v-1.34Z"/><rect class="w" x="265.19" y="119.67" width="12.88" height="0.45"/><rect class="s" x="283.65" y="119.67" width="6.1" height="0.45"/><rect class="x" x="292.46" y="119.67" width="6.1" height="0.45"/><rect class="w" x="290.29" y="119.67" width="1.44" height="0.45"/><rect class="y" x="278.67" y="119.67" width="4.28" height="0.45"/><rect class="w" x="265.19" y="131.09" width="12.88" height="0.45"/><rect class="s" x="283.65" y="131.09" width="6.1" height="0.45"/><rect class="x" x="292.46" y="131.09" width="6.1" height="0.45"/><rect class="w" x="290.29" y="131.09" width="1.44" height="0.45"/><rect class="z" x="278.67" y="131.09" width="4.28" height="0.45"/><rect class="w" x="285.68" y="127.28" width="12.88" height="0.45" transform="translate(584.23 255.01) rotate(180)"/><rect class="s" x="273.99" y="127.28" width="6.1" height="0.45" transform="translate(554.08 255.01) rotate(180)"/><rect class="x" x="265.19" y="127.28" width="6.1" height="0.45" transform="translate(536.47 255.01) rotate(180)"/><rect class="w" x="272.01" y="127.28" width="1.44" height="0.45" transform="translate(545.46 255.01) rotate(180)"/><rect class="z" x="280.8" y="127.28" width="4.28" height="0.45" transform="translate(565.87 255.01) rotate(180)"/><rect class="y" x="265.19" y="121.58" width="4.83" height="0.45"/><rect class="w" x="279.63" y="121.58" width="2.07" height="0.45"/><rect class="s" x="288.43" y="121.58" width="10.12" height="0.45"/><rect class="w" x="282.24" y="121.58" width="5.47" height="0.45"/><rect class="w" x="270.62" y="121.58" width="8.3" height="0.45"/><rect class="w" x="265.19" y="132.99" width="4.83" height="0.45"/><rect class="w" x="279.63" y="132.99" width="2.07" height="0.45"/><rect class="w" x="288.43" y="132.99" width="10.12" height="0.45"/><rect class="w" x="282.24" y="132.99" width="5.47" height="0.45"/><rect class="w" x="270.62" y="132.99" width="8.3" height="0.45"/><rect class="y" x="265.19" y="129.19" width="4.83" height="0.45"/><rect class="w" x="279.63" y="129.19" width="2.07" height="0.45"/><rect class="s" x="288.43" y="129.19" width="10.12" height="0.45"/><rect class="w" x="282.24" y="129.19" width="5.47" height="0.45"/><rect class="w" x="270.62" y="129.19" width="8.3" height="0.45"/><rect class="s" x="265.19" y="123.48" width="4.83" height="0.45"/><rect class="w" x="270.62" y="123.48" width="8.3" height="0.45"/><rect class="s" x="274.09" y="125.38" width="4.83" height="0.45" transform="translate(553.01 251.21) rotate(180)"/><rect class="w" x="265.19" y="125.38" width="8.3" height="0.45" transform="translate(538.67 251.21) rotate(180)"/><rect class="aa" x="272.79" y="150.1" width="18.79" height="1.88" rx="0.94" ry="0.94"/><path class="ab" d="M269.89,151.83h50.29a1.51,1.51,0,0,1,1.51,1.51v2.76a0,0,0,0,1,0,0H268.38a0,0,0,0,1,0,0v-2.76A1.51,1.51,0,0,1,269.89,151.83Z"/><path class="ac" d="M306.15,153.34v2.76H203.52v-2.76a1.51,1.51,0,0,1,1.51-1.51h99.61A1.51,1.51,0,0,1,306.15,153.34Z"/><path class="ad" d="M276.46,151.83l-2.61,4.27H248.73l.34-4.27Z"/><path class="n" d="M268.79,189.47v12.21l6.26-.1s.47-8.57.55-11.94S268.79,189.47,268.79,189.47Z"/><path class="ae" d="M257.54,205.79l12.32.13a1.33,1.33,0,0,0,1.34-1.32h0a1.33,1.33,0,0,0-.88-1.27l-6.07-2.19-6.66.09Z"/><path class="p" d="M270.11,206.26l-12.47,0v-.89l13.37,0h0A.89.89,0,0,1,270.11,206.26Z"/><line class="af" x1="264.1" y1="202.95" x2="265.55" y2="201.41"/><line class="af" x1="265.16" y1="203.4" x2="266.61" y2="201.86"/><line class="af" x1="266.17" y1="204" x2="267.8" y2="202.25"/><path class="ag" d="M257.12,201.74c.71-12,.52-23.13-.41-25.38-1-1.4-8.44-4.43-15.92-4.75l3.5-7.64c9.81.49,16.82,4.17,19.28,8.38,1,1.78,1.93,5.36,1.45,17.61-.25,6.42-.57,11.45-.57,11.45Z"/><path class="ah" d="M268.51,206.09l12.32.09a1.33,1.33,0,0,0,1.34-1.32h0a1.33,1.33,0,0,0-.88-1.26l-6.08-2.17-6.66.12Z"/><path class="p" d="M281.08,206.52H268.41v-.89H282A.89.89,0,0,1,281.08,206.52Z"/><line class="af" x1="275.06" y1="203.23" x2="276.5" y2="201.68"/><line class="af" x1="276.12" y1="203.68" x2="277.56" y2="202.13"/><line class="af" x1="277.13" y1="204.27" x2="278.76" y2="202.52"/><path class="ag" d="M268.49,189.81c.07-6.77-.23-12-.84-13.45-1-1.4-8.44-4.43-15.92-4.75l3.5-7.64c9.81.49,16.82,4.17,19.28,8.38,1,1.78,1.93,5.36,1.45,17.61Z"/><path class="ag" d="M257.52,166.17a5.57,5.57,0,0,1-5.56,5.56h-9.35a5.3,5.3,0,0,1-.82-.06,5.43,5.43,0,0,1-1.91-.65l-.3-.18a5.55,5.55,0,0,1-2.53-4.66l.17-3,20.14-.17Z"/><path class="n" d="M263.95,150.32l4.82-.77a.65.65,0,0,0,.54-.74h0a.65.65,0,0,0-.74-.54l-4.82.77a.65.65,0,0,0-.54.74h0A.65.65,0,0,0,263.95,150.32Z"/><path class="n" d="M265.48,151.62l3.87-.62a.65.65,0,0,0,.54-.74h0a.65.65,0,0,0-.74-.54l-3.87.62a.65.65,0,0,0-.54.74h0A.65.65,0,0,0,265.48,151.62Z"/><path class="n" d="M264.59,153.31l4.58-.73a.65.65,0,0,0,.54-.74h0a.65.65,0,0,0-.74-.54l-4.58.73a.65.65,0,0,0-.54.74h0A.65.65,0,0,0,264.59,153.31Z"/><path class="n" d="M266,149.07h-1.28a7,7,0,0,0-3.19.72l-1.9.94a31,31,0,0,0,1.24,3.26c3.67.66,4.92-1,4.92-1Z"/><rect class="ai" x="261.56" y="149.06" width="1.63" height="5.29"/><path class="ag" d="M250.9,154.92a9.88,9.88,0,0,1-9-5.73l-.08-.17-5-15.33,6.18-2,4.89,14.94a3.36,3.36,0,0,0,3,1.81l10.67-.11.06,6.51-10.67.11Z"/><path class="n" d="M285.7,148.6a4,4,0,0,0-1.73-1.65h0a7,7,0,0,0-3.2-.71l-2.12,0s-.54,4.6-.51,4.45,5.18-.22,7.53-.17a.66.66,0,0,0,.59-1Z"/><rect class="ai" x="277.36" y="145.93" width="2.02" height="5.42"/><path class="aj" d="M267.47,152a9.88,9.88,0,0,1-9-5.73l-7.23-15.64,5.91-2.73,7.23,15.64a3.34,3.34,0,0,0,3.08,1.95l10.67-.11.06,6.51-10.67.11Z"/><path class="aj" d="M259.25,133.65l-.12,13.66L259,164.71a5.74,5.74,0,0,1-1.49,1,22.5,22.5,0,0,1-4.82,1.75,39.09,39.09,0,0,1-9.78.73c-3.59-.09-6.51-.4-6.51-.4l.07-34.14a9.76,9.76,0,0,1,8.05-9.61,9.94,9.94,0,0,1,1.69-.14h3.3A9.75,9.75,0,0,1,259.25,133.65Z"/><rect class="ak" x="244.04" y="178.48" width="3.29" height="18.89"/><path class="al" d="M244,179.54v4.14l3.29-1.2v-2.8Z"/><path class="am" d="M255.81,180.11h-19.7a1.84,1.84,0,0,1-1.84-1.84h0a1.84,1.84,0,0,1,1.84-1.84h19.7a1.84,1.84,0,0,1,1.84,1.84h0A1.84,1.84,0,0,1,255.81,180.11Z"/><path class="am" d="M259.63,203.47h-2.06a4.34,4.34,0,0,0-4.46-4.2h-15a4.34,4.34,0,0,0-4.46,4.2H231.6a6.35,6.35,0,0,1,6.52-6.15h15A6.35,6.35,0,0,1,259.63,203.47Z"/><rect class="am" x="243.26" y="194.42" width="4.8" height="2.96"/><ellipse class="p" cx="232.55" cy="205.35" rx="1.71" ry="1.61"/><path class="an" d="M232.52,202.59h.31a2.18,2.18,0,0,1,2.18,2.18v.43a0,0,0,0,1,0,0h-4.68a0,0,0,0,1,0,0v-.43A2.18,2.18,0,0,1,232.52,202.59Z"/><ellipse class="p" cx="258.7" cy="205.35" rx="1.71" ry="1.61"/><path class="an" d="M258.67,202.59H259a2.18,2.18,0,0,1,2.18,2.18v.43a0,0,0,0,1,0,0h-4.68a0,0,0,0,1,0,0v-.43A2.18,2.18,0,0,1,258.67,202.59Z"/><rect class="am" x="244.4" y="197.93" width="2.73" height="5.82"/><ellipse class="p" cx="245.82" cy="205.35" rx="1.71" ry="1.61"/><path class="an" d="M245.79,202.59h.31a2.18,2.18,0,0,1,2.18,2.18v.43a0,0,0,0,1,0,0H243.6a0,0,0,0,1,0,0v-.43A2.18,2.18,0,0,1,245.79,202.59Z"/><path class="ao" d="M219.48,142.93l4.41,31.82a4,4,0,0,0,3.84,3.46l16.08.18-8.94-40H223.46A4,4,0,0,0,219.48,142.93Z"/><rect class="ap" x="236.99" y="171.46" width="29.29" height="6.93" rx="3.47" ry="3.47"/><path class="ag" d="M241.72,132.63c-.43,6.27.79,28.89,1.17,35.57-3.59-.09-6.51-.4-6.51-.4l.07-34.14a9.76,9.76,0,0,1,8.05-9.61S242.23,125.24,241.72,132.63Z"/><polygon class="ai" points="252.93 124.5 242.87 124.5 242.87 121.69 252.93 122.87 252.93 124.5"/><path class="ap" d="M236.7,174,232,141.38a2.71,2.71,0,0,1,2.43-3h0a2.81,2.81,0,0,1,3.18,2.29l4.67,32.63a2.71,2.71,0,0,1-2.43,3h0C238.34,176.49,237.54,177.58,236.7,174Z"/><path class="ag" d="M259.13,147.31,259,164.71a5.74,5.74,0,0,1-1.49,1l-2.32-26.21A47.18,47.18,0,0,0,259.13,147.31Z"/><polygon class="ag" points="268.49 189.81 269.04 193.04 270.2 191.16 270.48 191.67 271.55 190.07 272.05 194.21 273.02 193.11 273.27 191.59 273.98 193.65 275.34 190.7 275.89 192.09 275.96 189.96 268.49 189.81"/><path class="aq" d="M295.94,143.44V152h-7.13v-8.53a.68.68,0,0,1,.68-.68h5.77A.68.68,0,0,1,295.94,143.44Z"/><path class="y" d="M288.9,150.51a5.14,5.14,0,0,1-2.48-3.58,2.06,2.06,0,0,1,.53-1.68,3.12,3.12,0,0,1,2.23-.75l-.06,1a2.12,2.12,0,0,0-1.43.44,1,1,0,0,0-.24.86,4.12,4.12,0,0,0,2,2.77Z"/><path class="y" d="M292.61,152h-3.8v-8.53a.68.68,0,0,1,.68-.68h.23a21.76,21.76,0,0,0,1.09,6.3C291.64,151.19,292.38,151.82,292.61,152Z"/><path class="ar" d="M286.42,146.93a5,5,0,0,0,2.39,3.53V152h3.8c-.23-.15-1-.78-1.8-2.91a21.76,21.76,0,0,1-1.09-6.3h-.23a.68.68,0,0,0-.68.68v1.06a2.89,2.89,0,0,0-1.85.75A2.06,2.06,0,0,0,286.42,146.93Zm1.28-1a1.85,1.85,0,0,1,1.11-.43v3.61a3.61,3.61,0,0,1-1.35-2.32A1,1,0,0,1,287.7,146Z"/><path class="m" d="M250.62,99.82s2.84-3,2.74-3.73.53,3.4-.43,4.46Z"/><path class="q" d="M253.36,96.09s.43,3.07-.43,4.46l-.89-.28S253.33,99.23,253.36,96.09Z"/><path class="m" d="M246.41,104.15s3-2.9,2.91-3.6.37,3.42-.64,4.43Z"/><path class="q" d="M249.32,100.55s.29,3.09-.64,4.43l-.87-.32S249.14,103.68,249.32,100.55Z"/><path class="m" d="M246.1,100.81s-3.28-2.56-4-2.4,3.34-.83,4.48,0Z"/><path class="q" d="M242.14,98.41s3-.7,4.48,0l-.2.91S245.27,98.17,242.14,98.41Z"/><path class="m" d="M253.58,103.91s2.83-.48,3.06-.9-1.13,2.09-2.1,2.27Z"/><path class="q" d="M256.65,103s-1,1.87-2.1,2.27l-.37-.52S255.32,104.71,256.65,103Z"/><path class="m" d="M239.74,105.31s1.39-3.95,1-4.55,1.86,2.92,1.41,4.28Z"/><path class="q" d="M240.76,100.76s1.64,2.66,1.41,4.28l-.93.1S242,103.67,240.76,100.76Z"/><path class="m" d="M244.1,112.47s.05-6.31-.77-7,4.09,3.26,4.1,5.42Z"/><path class="q" d="M243.33,105.48s3.64,3,4.1,5.42l-1.28.6S246.51,109,243.33,105.48Z"/><polygon class="n" points="253.52 160.97 252.31 161.9 251.9 161.44 249.54 162.58 247.91 162.58 247.81 161.55 250.66 160.19 252.13 158.91 253.52 160.97"/><polygon class="ai" points="246.91 137.02 247.9 137.57 248.64 136.78 250.01 137.27 250.52 136.08 251.56 136.08 251.28 135.31 250.37 134.87 248.94 135.26 247.25 136.4 246.91 137.02"/><polygon class="ag" points="251.04 157.02 253.64 161.17 251.6 160.31 251.04 162.38 249.06 161.17 249.06 162.81 247.59 161.34 251.04 157.02"/><path class="ag" d="M251.28,135.31l-2.35-3.12.64,2.35-1.31-1.11.12,1.63-2.06.25.59,1.36-.94-.15.92.5S248.78,134.84,251.28,135.31Z"/><path class="g" d="M299.7,48.07s-13.82,19.59-6.91,42c0,0-4.1-1.49-4.64-3.36,0,0-7.22,15.26,2.72,32.89,0,0-9.69-1.4-14.92-23.59,0,0-4.59,2.69-5.3,7.7,0,0-7.28-21.93,2.19-37.37,0,0-4-1.66-6.23.44,0,0,6.65-21,33.16-20.33,0,0-18.82,4.9-21.44,21.43C278.32,67.88,283.8,55.94,299.7,48.07Z"/><path class="h" d="M292.56,55.15c-.25.25-.59.67-.82,1a27.93,27.93,0,0,0-1.68,3c-.18.38-.63,1.46-.74,1.7s-.27.73-.39,1.1c-.51,1.52-1,3-1.4,4.59-.74,2.83-1.36,5.69-1.82,8.58-.05.57-.34,3-.38,3.65-.07,1.12-.12,2.23-.13,3.35a12.39,12.39,0,0,1-5.7,10.6c.28,1.47.57,2.94.94,4.39,1.37,5.46,2.45,11,3.8,16.44q.25,1,.51,2c3.36,3.73,6.11,4.13,6.11,4.13-9.94-17.62-2.72-32.89-2.72-32.89.54,1.87,4.64,3.36,4.64,3.36-6.91-22.42,6.91-42,6.91-42-.78.39-1.52.78-2.25,1.19A14.51,14.51,0,0,1,292.56,55.15Z"/></g></svg>