<svg xmlns="http://www.w3.org/2000/svg" viewBox="0 0 828.36 529.29"><defs><style>.a{isolation:isolate;}.b{fill:#f2f2f2;}.c{fill:#4d4d4d;}.d{fill:#dedede;}.e{opacity:0.15;mix-blend-mode:multiply;}</style></defs><title>laptop</title><g class="a"><rect class="b" x="116.06" width="596.24" height="394.32" rx="10.2" ry="10.2"/><rect class="c" x="218.99" y="-99.3" width="390.39" height="592.92" rx="9.35" ry="9.35" transform="translate(611.34 -217.02) rotate(90)"/><rect class="b" x="142.42" y="33.05" width="543.53" height="328.22"/><path class="b" d="M807.16,500.45H21.2c-15.53,0-24.48-3.29-20.07-7.26l110.77-99.92c2.32-2.09,13.08-3.76,24.08-3.76H692.39c11,0,21.76,1.67,24.08,3.76l110.77,99.92C831.65,497.17,822.7,500.45,807.16,500.45Z"/><path class="d" d="M828.35,495.2c0,3-8.37,5.25-21.19,5.25H21.2C8.61,500.45.35,498.3,0,495.36H0v12.3c.15,3,8.44,5.2,21.18,5.2h786c12.77,0,21.07-2.22,21.18-5.22V495.2Z"/><path class="e" d="M818.64,512.12a79.78,79.78,0,0,1-11.48.74H21.2a79.8,79.8,0,0,1-11.48-.74L1.12,521c-4.41,4.55,4.54,8.3,20.07,8.3h786c15.53,0,24.48-3.76,20.07-8.3Z"/><path class="d" d="M742.88,454H85.49c-4.54,0-7.37-.85-6.32-1.89l55.56-55c.73-.72,4.36-1.3,8.11-1.3H685.52c3.75,0,7.38.58,8.11,1.3l55.56,55C750.25,453.14,747.42,454,742.88,454Z"/><path class="d" d="M512.61,494.39H315.75c-5.09,0-8.92-1.07-8.54-2.37l8.73-30.32c.32-1.1,4.32-2,8.94-2H503.48c4.62,0,8.62.88,8.94,2L521.15,492C521.53,493.32,517.71,494.39,512.61,494.39Z"/><path class="c" d="M153.68,426.83H120c-2.09,0-4.19.43-4.71,1l-7.53,7.74c-.54.56.77,1,2.92,1h69.41c2.15,0,4.23-.45,4.63-1l5.64-7.74c.38-.53-1-1-3.08-1Z"/><path class="c" d="M230,436.53h-30.8c-2.15,0-3.63-.38-3.31-.85l5.57-8c.31-.44,2.25-.8,4.34-.8h29.86c2.09,0,3.57.36,3.32.8l-4.59,8C234.14,436.14,232.18,436.53,230,436.53Z"/><path class="c" d="M279.92,436.53h-30.8c-2.15,0-3.69-.38-3.44-.85l4.3-8c.24-.44,2.12-.8,4.21-.8H284c2.09,0,3.63.36,3.45.8l-3.32,8C284,436.14,282.07,436.53,279.92,436.53Z"/><path class="c" d="M329.8,436.53H299c-2.15,0-3.75-.38-3.58-.85l3-8c.17-.44,2-.8,4.08-.8H332.4c2.09,0,3.69.36,3.57.8l-2,8C333.8,436.14,332,436.53,329.8,436.53Z"/><path class="c" d="M429.58,436.53h-30.8c-2.15,0-3.87-.38-3.85-.85l.49-8c0-.44,1.74-.8,3.83-.8h29.86c2.09,0,3.8.36,3.83.8l.49,8C433.46,436.14,431.74,436.53,429.58,436.53Z"/><path class="c" d="M379.69,436.53h-30.8c-2.15,0-3.81-.38-3.71-.85l1.76-8c.1-.44,1.87-.8,4-.8h29.86c2.09,0,3.74.36,3.7.8l-.78,8C383.63,436.14,381.85,436.53,379.69,436.53Z"/><path class="c" d="M479.47,436.53h-30.8c-2.15,0-3.94-.38-4-.85l-.78-8c0-.44,1.61-.8,3.7-.8h29.86c2.09,0,3.86.36,4,.8l1.76,8C483.29,436.14,481.63,436.53,479.47,436.53Z"/><path class="c" d="M529.36,436.53h-30.8c-2.15,0-4-.38-4.12-.85l-2-8c-.11-.44,1.49-.8,3.57-.8h29.86c2.09,0,3.91.36,4.08.8l3,8C533.12,436.14,531.52,436.53,529.36,436.53Z"/><path class="c" d="M579.25,436.53h-30.8c-2.15,0-4.06-.38-4.25-.85l-3.32-8c-.18-.44,1.36-.8,3.45-.8h29.86c2.09,0,4,.36,4.21.8l4.3,8C582.95,436.14,581.4,436.53,579.25,436.53Z"/><path class="c" d="M629.14,436.53h-30.8c-2.15,0-4.12-.38-4.38-.85l-4.59-8c-.25-.44,1.23-.8,3.32-.8h29.86c2.09,0,4,.36,4.34.8l5.57,8C632.78,436.14,631.29,436.53,629.14,436.53Z"/><path class="c" d="M174.28,450H146.2c-2.25,0-3.72-.41-3.3-.93l7.21-8.73c.4-.48,2.48-.87,4.65-.87H182c2.17,0,3.66.39,3.31.87L179,449.09C178.64,449.6,176.53,450,174.28,450Z"/><path class="c" d="M126.3,450H97.78c-2.24,0-3.66-.41-3.16-.93l8.5-8.73c.47-.48,2.61-.87,4.78-.87H135.5c2.17,0,3.6.39,3.18.87l-7.53,8.73C130.72,449.6,128.54,450,126.3,450Z"/><path class="c" d="M222.16,450h-28c-2.25,0-3.78-.41-3.44-.93l5.94-8.73c.33-.48,2.35-.87,4.53-.87H228.3c2.17,0,3.71.39,3.44.87l-5,8.73C226.47,449.6,224.41,450,222.16,450Z"/><path class="c" d="M682.7,450H654.62c-2.24,0-4.36-.41-4.73-.93l-6.27-8.74c-.35-.48,1.14-.87,3.31-.87h27.19c2.17,0,4.26.39,4.66.87l7.23,8.74C686.42,449.6,684.95,450,682.7,450Z"/><path class="c" d="M634.72,450H606.2c-2.25,0-4.3-.41-4.59-.93l-2-3.53c-.28-.5,1.28-.9,3.48-.9h28.06c2.21,0,4.27.4,4.61.9l2.4,3.53C638.5,449.6,637,450,634.72,450Z"/><path class="c" d="M730.59,450h-28c-2.24,0-4.42-.41-4.86-.93l-3-3.53c-.43-.5,1-.9,3.22-.9h27.53c2.21,0,4.39.4,4.87.9l3.43,3.53C734.25,449.6,732.83,450,730.59,450Z"/><path class="c" d="M274.18,450H242.06c-2.24,0-3.84-.41-3.57-.93l4.67-8.73c.26-.48,2.23-.87,4.4-.87h31.09c2.17,0,3.77.39,3.58.87l-3.6,8.73C278.42,449.6,276.43,450,274.18,450Z"/><path class="c" d="M586.3,450H554.18c-2.24,0-4.24-.41-4.45-.93l-3.6-8.74c-.2-.48,1.4-.87,3.58-.87h31.09c2.17,0,4.14.39,4.4.87l4.67,8.74C590.14,449.6,588.54,450,586.3,450Z"/><path class="c" d="M674.68,426.83H641c-2.09,0-3.47.43-3.08,1l5.64,7.74c.4.56,2.48,1,4.63,1h69.41c2.15,0,3.46-.45,2.92-1L713,427.78c-.51-.53-2.62-1-4.71-1Z"/><path class="c" d="M153.09,415.14H131.27c-2,0-4,.39-4.49.88l-7,7.15c-.5.51.77.93,2.84.93h45c2.07,0,4.08-.42,4.49-.93l5.72-7.15c.39-.49-.92-.88-2.93-.88Z"/><path class="c" d="M263.48,424.1H233.89c-2.07,0-3.53-.35-3.27-.79l4.51-7.43c.25-.41,2.08-.74,4.09-.74h28.72c2,0,3.47.33,3.27.74l-3.6,7.43C267.4,423.75,265.55,424.1,263.48,424.1Z"/><path class="c" d="M215.56,424.1H186c-2.07,0-3.48-.35-3.14-.79l5.68-7.43c.31-.41,2.2-.74,4.2-.74h28.72c2,0,3.42.33,3.16.74l-4.77,7.43C219.53,423.75,217.63,424.1,215.56,424.1Z"/><path class="c" d="M311.41,424.1H281.82c-2.07,0-3.59-.35-3.39-.79l3.33-7.43c.18-.41,2-.74,4-.74h28.72c2,0,3.53.33,3.39.74l-2.43,7.43C315.27,423.75,313.48,424.1,311.41,424.1Z"/><path class="c" d="M359.34,424.1H329.75c-2.07,0-3.64-.35-3.52-.79l2.16-7.43c.12-.41,1.84-.74,3.85-.74H361c2,0,3.58.33,3.51.74l-1.25,7.43C363.14,423.75,361.41,424.1,359.34,424.1Z"/><path class="c" d="M455.19,424.1H425.6c-2.07,0-3.75-.35-3.76-.79l-.19-7.43c0-.41,1.61-.74,3.62-.74H454c2,0,3.68.33,3.74.74l1.1,7.43C458.89,423.75,457.26,424.1,455.19,424.1Z"/><path class="c" d="M407.27,424.1H377.67c-2.07,0-3.7-.35-3.64-.79l1-7.43c.05-.41,1.73-.74,3.73-.74h28.72c2,0,3.63.33,3.63.74l-.08,7.43C411,423.75,409.33,424.1,407.27,424.1Z"/><path class="c" d="M503.12,424.1H473.53c-2.07,0-3.81-.35-3.89-.79l-1.36-7.43c-.08-.41,1.49-.74,3.5-.74h28.72c2,0,3.74.33,3.86.74l2.27,7.43C506.76,423.75,505.19,424.1,503.12,424.1Z"/><path class="c" d="M551,424.1H521.45c-2.07,0-3.87-.35-4-.79l-2.54-7.43c-.14-.41,1.37-.74,3.38-.74H547c2,0,3.79.33,4,.74l3.44,7.43C554.63,423.75,553.12,424.1,551,424.1Z"/><path class="c" d="M599,424.1H569.38c-2.07,0-3.92-.35-4.14-.79l-3.71-7.43c-.21-.41,1.26-.74,3.26-.74h28.72c2,0,3.84.33,4.1.74l4.62,7.43C602.5,423.75,601,424.1,599,424.1Z"/><path class="c" d="M646.9,424.1H617.31c-2.07,0-4-.35-4.26-.79l-4.88-7.43c-.27-.41,1.14-.74,3.15-.74H640c2,0,3.89.33,4.21.74l5.79,7.43C650.37,423.75,649,424.1,646.9,424.1Z"/><path class="c" d="M213,402H186.78c-1.92,0-3.22-.3-2.92-.68l2.12-2.58c.3-.36,2.07-.66,4-.66H215.8c1.89,0,3.22.29,3,.66l-1.81,2.58C216.68,401.67,214.92,402,213,402Z"/><path class="c" d="M170.14,402H143.92c-1.92,0-3.18-.3-2.82-.68l2.51-2.58c.35-.36,2.17-.66,4.07-.66h25.85c1.89,0,3.17.29,2.86.66l-2.2,2.58C173.87,401.67,172.06,402,170.14,402Z"/><path class="c" d="M255.86,402H229.64c-1.92,0-3.27-.3-3-.68l1.72-2.58c.24-.36,2-.66,3.86-.66h25.85c1.89,0,3.26.29,3.06.66l-1.42,2.58C259.49,401.67,257.77,402,255.86,402Z"/><path class="c" d="M298.71,402H272.5c-1.92,0-3.32-.3-3.12-.68l1.33-2.58c.19-.36,1.87-.66,3.76-.66h25.85c1.89,0,3.31.29,3.16.66l-1,2.58C302.31,401.67,300.63,402,298.71,402Z"/><path class="c" d="M384.43,402H358.21c-1.92,0-3.41-.3-3.33-.68l.54-2.58c.08-.36,1.67-.66,3.56-.66h25.85c1.89,0,3.4.29,3.36.66l-.24,2.58C387.93,401.67,386.35,402,384.43,402Z"/><path class="c" d="M341.57,402H315.36c-1.92,0-3.36-.3-3.23-.68l.94-2.58c.13-.36,1.77-.66,3.66-.66h25.85c1.89,0,3.35.29,3.26.66l-.63,2.58C345.12,401.67,343.49,402,341.57,402Z"/><path class="c" d="M427.29,402H401.07c-1.92,0-3.45-.3-3.43-.68l.15-2.58c0-.36,1.57-.66,3.46-.66h25.85c1.89,0,3.44.29,3.46.66l.15,2.58C430.74,401.67,429.21,402,427.29,402Z"/><path class="c" d="M470.15,402H443.93c-1.92,0-3.5-.3-3.53-.68l-.24-2.58c0-.36,1.47-.66,3.36-.66h25.85c1.89,0,3.49.29,3.56.66l.54,2.58C473.56,401.67,472.07,402,470.15,402Z"/><path class="c" d="M513,402H486.79c-1.92,0-3.55-.3-3.64-.68l-.63-2.58c-.09-.36,1.37-.66,3.26-.66h25.85c1.89,0,3.53.29,3.66.66l.94,2.58C516.37,401.67,514.92,402,513,402Z"/><path class="c" d="M555.86,402H529.65c-1.92,0-3.59-.3-3.74-.68l-1-2.58c-.15-.36,1.27-.66,3.16-.66h25.85c1.89,0,3.58.29,3.76.66l1.33,2.58C559.18,401.67,557.78,402,555.86,402Z"/><path class="c" d="M598.72,402H572.51c-1.92,0-3.64-.3-3.84-.68l-1.42-2.58c-.2-.36,1.17-.66,3.06-.66h25.85c1.89,0,3.62.29,3.86.66l1.72,2.58C602,401.67,600.64,402,598.72,402Z"/><path class="c" d="M641.58,402H615.36c-1.92,0-3.68-.3-3.95-.68l-1.81-2.58c-.26-.36,1.07-.66,3-.66h25.85c1.89,0,3.67.29,4,.66l2.12,2.58C644.81,401.67,643.5,402,641.58,402Z"/><path class="c" d="M684.44,402H658.22c-1.92,0-3.73-.3-4-.68l-2.2-2.58c-.31-.36,1-.66,2.86-.66h25.85c1.89,0,3.71.29,4.07.66l2.51,2.58C687.62,401.67,686.36,402,684.44,402Z"/><path class="c" d="M677.46,415.14H657.82c-2,0-3.31.39-2.92.88l5.83,7.15c.42.51,2.43.93,4.5.93H705.7c2.07,0,3.34-.42,2.84-.93l-7-7.15c-.47-.49-2.48-.88-4.49-.88Z"/><path class="c" d="M162.69,404.31h-21c-1.93,0-3.86.37-4.3.82l-6.45,6.63c-.46.47.78.86,2.77.86h32.45c2,0,3.93-.39,4.32-.86l5.55-6.63c.38-.45-.88-.82-2.82-.82Z"/><path class="c" d="M258.38,412.62H229.9c-2,0-3.39-.33-3.14-.73L231.2,405c.25-.38,2-.69,3.94-.69h27.66c1.93,0,3.34.31,3.14.69l-3.59,6.89C262.15,412.29,260.37,412.62,258.38,412.62Z"/><path class="c" d="M212.26,412.62H183.79c-2,0-3.34-.33-3-.73l5.52-6.89c.31-.38,2.12-.69,4.05-.69H218c1.93,0,3.29.31,3,.69l-4.68,6.89C216.09,412.29,214.25,412.62,212.26,412.62Z"/><path class="c" d="M304.49,412.62H276c-2,0-3.45-.33-3.25-.73l3.34-6.89c.19-.38,1.9-.69,3.84-.69h27.66c1.93,0,3.39.31,3.25.69l-2.5,6.89C308.21,412.29,306.48,412.62,304.49,412.62Z"/><path class="c" d="M350.6,412.62H322.13c-2,0-3.5-.33-3.37-.73L321,405c.13-.38,1.79-.69,3.73-.69h27.66c1.93,0,3.44.31,3.36.69l-1.41,6.89C354.27,412.29,352.59,412.62,350.6,412.62Z"/><path class="c" d="M442.83,412.62H414.36c-2,0-3.6-.33-3.59-.73l.08-6.89c0-.38,1.58-.69,3.51-.69H442c1.93,0,3.53.31,3.58.69l.76,6.89C446.4,412.29,444.82,412.62,442.83,412.62Z"/><path class="c" d="M396.72,412.62H368.24c-2,0-3.55-.33-3.48-.73l1.17-6.89c.06-.38,1.68-.69,3.62-.69h27.66c1.93,0,3.49.31,3.47.69l-.33,6.89C400.34,412.29,398.71,412.62,396.72,412.62Z"/><path class="c" d="M488.95,412.62H460.47c-2,0-3.65-.33-3.71-.73l-1-6.89c-.06-.38,1.47-.69,3.4-.69h27.66c1.93,0,3.58.31,3.69.69l1.85,6.89C492.46,412.29,490.94,412.62,488.95,412.62Z"/><path class="c" d="M535.06,412.62H506.59c-2,0-3.7-.33-3.82-.73l-2.1-6.89c-.12-.38,1.36-.69,3.29-.69h27.66c1.93,0,3.63.31,3.79.69l2.94,6.89C538.52,412.29,537,412.62,535.06,412.62Z"/><path class="c" d="M581.17,412.62H552.7c-2,0-3.75-.33-3.94-.73L545.58,405c-.18-.38,1.25-.69,3.18-.69h27.66c1.93,0,3.68.31,3.9.69l4,6.89C584.59,412.29,583.16,412.62,581.17,412.62Z"/><path class="c" d="M627.29,412.62H598.81c-2,0-3.81-.33-4.05-.73L590.49,405c-.24-.38,1.14-.69,3.07-.69h27.66c1.93,0,3.73.31,4,.69l5.11,6.89C630.65,412.29,629.28,412.62,627.29,412.62Z"/><path class="c" d="M657.27,404.31H638.36c-1.93,0-3.22.37-2.87.82l5.16,6.63c.37.47,2.28.86,4.27.86h49.74c2,0,3.23-.39,2.77-.86L691,405.13c-.44-.45-2.36-.82-4.3-.82Z"/><path class="c" d="M534.28,450H294.08c-2.24,0-3.91-.41-3.72-.93l3.29-8.73c.18-.48,2.09-.87,4.26-.87H530.44c2.17,0,4.08.39,4.26.87l3.29,8.74C538.19,449.6,536.52,450,534.28,450Z"/></g></svg>