<svg xmlns="http://www.w3.org/2000/svg" viewBox="0 0 272.37 207.54"><defs><style>.a{fill:#2d2d2d;}.b{fill:#212120;}.c{fill:#fff;}.d{fill:#c6c6c6;}.e{fill:#c12d2d;}.f{fill:#2faf1c;}.g{fill:#b5bf2e;}.h{fill:#2fbcb5;}</style></defs><title>router</title><path class="a" d="M55.68,57.12l9.09,56.53L51.6,115.77,42.51,59.24,36.28,2.54c-.07-.68.57-1.38,1.61-1.87A6.81,6.81,0,0,1,39.76.1c2-.33,3.85.22,4.06,1.23Z"/><path class="b" d="M51.85,57.73l9.09,56.53-9.35,1.5L42.51,59.24,36.28,2.54c-.07-.68.57-1.38,1.61-1.87,1.13.15,2,.61,2.11,1.28Z"/><path class="b" d="M216.7,57.12l-9.09,56.53,13.17,2.12,9.09-56.53,6.23-56.7c.07-.68-.57-1.38-1.61-1.87A6.81,6.81,0,0,0,232.61.1c-2-.33-3.85.22-4.06,1.23Z"/><path class="a" d="M220.52,57.73l-9.09,56.53,9.35,1.5,9.09-56.53,6.23-56.7c.07-.68-.57-1.38-1.61-1.87-1.13.15-2,.61-2.11,1.28Z"/><path class="b" d="M29.86,207.54h0a9.12,9.12,0,0,1-9.12-9.12v-5H39v5A9.12,9.12,0,0,1,29.86,207.54Z"/><path class="b" d="M242.52,207.54h0a9.12,9.12,0,0,1-9.12-9.12v-5h18.24v5A9.12,9.12,0,0,1,242.52,207.54Z"/><rect class="c" x="8.82" y="110.47" width="254.72" height="88.24" rx="10" ry="10"/><path class="d" d="M8.82,168.71v20a10,10,0,0,0,10,10H253.55a10,10,0,0,0,10-10v-20Z"/><path class="b" d="M272.37,133.24v42.7a12.18,12.18,0,0,1-12.18,12.18h-248A12.18,12.18,0,0,1,0,175.94v-42.7a12.18,12.18,0,0,1,12.18-12.18h248A12.18,12.18,0,0,1,272.37,133.24Z"/><path class="a" d="M272.37,133.24v42.7a12.17,12.17,0,0,1-1.52,5.89H12.66A12.66,12.66,0,0,1,0,169.19V133.24a12.18,12.18,0,0,1,12.18-12.18h248A12.18,12.18,0,0,1,272.37,133.24Z"/><circle class="e" cx="24.02" cy="154.59" r="8.63"/><circle class="f" cx="78.14" cy="154.59" r="4.51"/><circle class="f" cx="95.2" cy="154.59" r="4.51"/><circle class="f" cx="112.26" cy="154.59" r="4.51"/><circle class="f" cx="129.32" cy="154.59" r="4.51"/><circle class="g" cx="146.38" cy="154.59" r="4.51"/><circle class="g" cx="163.44" cy="154.59" r="4.51"/><path class="h" d="M252.47,159.1H188.93a4.51,4.51,0,0,1-4.51-4.51h0a4.51,4.51,0,0,1,4.51-4.51h63.53a4.51,4.51,0,0,1,4.51,4.51h0A4.51,4.51,0,0,1,252.47,159.1Z"/></svg>