<svg xmlns="http://www.w3.org/2000/svg" xmlns:xlink="http://www.w3.org/1999/xlink" viewBox="0 0 750 500"><defs><style>.a{fill:none;}.b{isolation:isolate;}.c{clip-path:url(#a);}.d{fill:#1d93bf;}.e{fill:#1189b7;}.f{fill:#117fb2;}.g{fill:#1a3b57;}.h{fill:#245982;}.i{fill:#d3d2d9;mix-blend-mode:multiply;}</style><clipPath id="a"><rect class="a" width="750" height="500"/></clipPath></defs><title>seafloor-introduction</title><g class="b"><g class="c"><path class="d" d="M751,381.62c-.38-9.32-1-18.73-4-27.72l-.06,3.43c-13.14-15.1-38.46-19.73-60.78-17.27s-43,10.64-64.4,16.45-45.24,9.19-66,2.1c-6.85-2.34-13.59-5.83-21-5.5-12.48.55-20.56,11.39-32.32,14.87-16.18,4.8-33.91-5.43-50.84-3-5.09.74-9.86,2.6-14.95,3.34-13.23,1.91-26-3.91-38.46-8.07a163.75,163.75,0,0,0-95.45-1.85c-26,7.53-50.83,21.84-78.25,19.56-21.25-1.76-40.44-13.5-61.79-12.95-15.36.39-30.55,7.19-45.47,4.14C105.49,366.81,96.84,359,86.44,354c-29.09-13.75-66.16-2.84-98.87-8.88C-28,342.3-42.6,335.84-58,333.78V440.41H749.26c-.44,0-.74,1.26-.11,1.19s.82-.82.85-1.35A512.26,512.26,0,0,0,751,381.62Z"/><path class="e" d="M783.59,376.82c-11.39-4.24-26.29-2.41-38.58,1.21-14.24,4.2-27.93,10.45-43.26,11-11.6.39-22.85-2.58-34.24-4.27-26.63-3.95-54.13-.88-81,1.94-28.09,3-57.42,5.55-84.29-1.15-8.35-2.08-16.47-5.06-25.26-5.51-10.09-.52-19.85,2.34-29.41,4.78A380.1,380.1,0,0,1,329.07,395.4c-24.11-1.63-47.92-5.53-72.11-6.28-20-.62-39.94.91-59.77,2.75-20.77,1.93-42,4.18-62.47,1.11-16.79-2.51-32.19-8.46-48-13.28A366.52,366.52,0,0,0-26.76,364.44c-.13,4.21-.67,8.43-.67,12.64v64.45c115.34,6.17,230.72.26,345.87.26H783.59Z"/><path class="f" d="M783.59,447.13V408.95c-16.64,1.16-33.17,3.09-49.93,2.67-20.08-.51-39.24-4.38-59.29-5-20.83-.69-42.12,2.25-58.94,8.14-7.36,2.58-14.32,5.8-23.28,6.66-19.52,1.88-35.72-8.09-55.54-9-18.08-.84-33.93,6-52,7.05-9,.55-18.16-.93-27,.07-50.5,5.68-92.16-3.2-121.55-5.11-38.34-2.49-77.16,8.68-114.83,4.49-17.07-1.9-32.52-6.87-50-7.51-10.18-.37-20.3.76-30.38,1.54-28.82,2.22-58.27,1.55-87.33.23q-46-2.09-91.36-6.28c-5.71,10,3.07,29.12.49,37.51C-37.37,444.34,673.12,444.72,783.59,447.13Z"/><path class="g" d="M783.59,392.82c-8.6-.11-17.47-.39-26.5.65-11.89,1.37-24.14,1.89-35.48,4.53-13.59,3.17-25.47,9.3-39.74,10.87-8.51.93-17.24.16-25.8-.62l-132.79-12c-9.43-.85-19-1.71-28.45-1-8.71.66-17,2.63-25.43,4.22a287.53,287.53,0,0,1-86.49,2.73c-8.72-1.06-17.41-2.52-26.29-2.55-31.42-.11-59.06,17.49-90.19,14.81-11-.94-20.93-4.36-31.51-6.37-7.42-1.41-15.11-2.14-22.77-2.86l-50.71-4.76c-14.61-1.37-29.58-2.74-44-.75-15.12,2.09-29.54,7.82-44.84,6.33-17.2-1.67-29.88-12.08-47.18-13.28-14.92-1-30.42,4.2-41.52,9.94v7.56c0,8.19-.15,16.46-2.31,24.55l-11-.05c7-.28,15.44,20.27,22.45,20l790.55,2.41Z"/><path class="g" d="M411.44,412.37c-3.52-1.45-6.1-8.38-6.64-11.86-.73-4.71,2-9,3.89-13.11,1.48-3.26,3-6.4,1.76-10-.95-2.79-3.3-4.8-4.7-7.33-3.76-6.8-3.4-17.49.43-24.19,3.92-6.87,6.74-15.72,1.29-22.94-.36,3.29.59,6.16-.6,9.49-1.59,4.45-4.46,8.3-7.31,12s-4,8.36-4.49,13c-.42,4.28,1.5,7.38,3.63,11,4.89,8.28-2.86,14.78-5.86,22.51-1.86,4.8-1.08,9.66-.27,14.59.45,2.75.52,5.84,1.86,8.33,3.55-1.48,7.67-.52,11.33-.09C407.44,414,410.36,414.55,411.44,412.37Z"/><path class="g" d="M323.42,422.35q5.9.58,11.8,1.2a8.25,8.25,0,0,0-.44-2.86c-.95-2.79-3.3-4.8-4.7-7.33-3.76-6.8-3.4-17.49.43-24.19,3.92-6.87,6.74-15.72,1.29-22.94-.36,3.29.59,6.16-.6,9.49-1.59,4.45-4.46,8.3-7.31,12s-4,8.36-4.49,13c-.42,4.28,1.5,7.38,3.63,11C325.3,415.53,324.85,419,323.42,422.35Z"/><path class="g" d="M388.28,412.15c2.73-4.37,5.18-8.89,7.81-13.32,1.81-3,3.77-6.25,3.42-10-.26-2.74-2.24-5.06-2.92-7.67a35,35,0,0,1-.62-7.31c-.23-5.24,1.31-7.11,3.8-11.49,2.16-3.78,2.75-7.09,1.24-11.25-1.64-4.51-4.3-7.33-6.85-11.13-2.44-3.63-1.55-8.43-1.41-12.6.22-6.56.74-16.22-6-20a22,22,0,0,1,1,14.2c-1.43,5.14-5.81,8.51-6,14.08-.22,5.77,4.5,9.34,5.71,14.7,1.1,4.9-.43,8.66-3.34,12.48s-7.08,6.95-8.26,11.76c-1.08,4.39,1.27,8,1.72,12.26.92,8.57-10,13.6-7.71,22.67,3.16-.19,5-2.41,8.72-1.59C381.94,408.7,386.52,412.27,388.28,412.15Z"/><path class="g" d="M339.86,432.44c2.73-4.37,5.18-8.89,7.81-13.32,1.81-3,3.77-6.25,3.42-10-.26-2.74-2.24-5.06-2.92-7.67a35,35,0,0,1-.62-7.31c-.23-5.24,1.31-7.11,3.8-11.49,2.16-3.78,2.75-7.09,1.24-11.25-1.64-4.51-4.3-7.33-6.85-11.13-2.44-3.63-1.55-8.43-1.41-12.6.22-6.56.74-16.22-6-20a22,22,0,0,1,1,14.2c-1.43,5.14-5.81,8.51-6,14.08-.22,5.77,4.5,9.34,5.71,14.7,1.1,4.9-.43,8.66-3.34,12.48s-7.08,6.95-8.26,11.76c-1.08,4.39,1.27,8,1.72,12.26.92,8.57-10,13.6-7.71,22.67,3.16-.19,5-2.41,8.72-1.59C333.51,429,338.09,432.56,339.86,432.44Z"/><path class="g" d="M381.48,429.26c-2.73-4.37-5.18-8.89-7.81-13.32-1.81-3-3.77-6.25-3.42-10,.26-2.74,2.24-5.06,2.92-7.67a35,35,0,0,0,.62-7.31c.23-5.24-1.31-7.11-3.8-11.49-2.16-3.78-2.75-7.09-1.24-11.25,1.64-4.51,4.3-7.33,6.85-11.13,2.44-3.63,1.55-8.43,1.41-12.6-.22-6.56-.74-16.22,6-20a22,22,0,0,0-1,14.2c1.43,5.14,5.81,8.51,6,14.08.22,5.77-4.5,9.34-5.71,14.7-1.1,4.9.43,8.66,3.34,12.48s7.08,6.95,8.26,11.76c1.08,4.39-1.27,8-1.72,12.26-.92,8.57,10,13.6,7.71,22.67-3.16-.19-5-2.41-8.72-1.59C387.83,425.8,383.25,429.37,381.48,429.26Z"/><path class="g" d="M421.35,410.18c-2.12-4.57-4.42-8.77-3.73-14a84.2,84.2,0,0,1,2.53-10.78c1.55-5.71,3.85-12.62.93-18.33-1.47-2.88-3.19-5.06-3.61-8.43-.45-3.6.82-6.75,1.88-10.14,2.13-6.84,3-14,0-20.79-.57,8.35-1,15.21-5.54,22.52-2.07,3.3-4.53,6.1-4.78,10.09-.26,4.16.64,7.81,1.14,11.88.82,6.72-3.56,12.69-4.5,19.29a68.38,68.38,0,0,0-.17,12.78c.12,2.71-.5,4.59-.92,7.14,5.63-1.2,13.85,2.75,18.76-.74C423.25,410.37,423.1,410.43,421.35,410.18Z"/><path class="g" d="M365.87,434c-2.12-4.57-4.42-8.77-3.73-14a84.19,84.19,0,0,1,2.53-10.78c1.55-5.71,3.85-12.62.93-18.33-1.47-2.88-3.19-5.06-3.61-8.43-.45-3.6.82-6.75,1.88-10.14,2.13-6.84,3-14,0-20.79-.57,8.35-1,15.21-5.54,22.52-2.07,3.3-4.53,6.1-4.78,10.09-.26,4.16.64,7.81,1.14,11.88.82,6.72-3.56,12.69-4.5,19.29a68.38,68.38,0,0,0-.17,12.78c.12,2.71-.5,4.59-.92,7.14,5.63-1.2,13.85,2.75,18.76-.74C367.77,434.23,367.62,434.29,365.87,434Z"/><path class="g" d="M382.52,418.42c.29-3.49-1-7.24-2.5-10.37-1.88-4-4.15-8.08-3.94-12.71.15-3.46,1.68-6.52,2.87-9.63s2.08-6.83.93-10c-1.46-4-5.7-5.6-6.7-9.83-.78-3.31.8-6.74,2.47-9.45s3.61-5.58,3.66-9c.08-5.6-4.75-9.55-5.27-15.11-.74-7.9,7.19-13,8.15-20.84.45-3.69-.74-7.37-2.17-10.63s-3.13-6.39-3.86-10-.23-8,2.1-10.2c-4,4.15-9.06,8.66-6.63,16.05,1,3.09,2.67,5.94,2.88,9.28.61,9.81-11,15.49-10.38,25.29.38,5.74,5,10.17,4.74,15.92-.36,6.73-7.26,10.52-7.63,17.24-.33,6,4.76,10.42,5.61,16.38.48,3.36-.46,6.75-1.39,10l-7.62,26.4a37.7,37.7,0,0,0,24.08,4A10.08,10.08,0,0,0,382.52,418.42Z"/><path class="g" d="M366.6,412c-3.6.31-9.66-5.49-10.65-9.19-1.61-6,.2-11.2,3.4-16.15,3-4.66,7.51-9.71,7.87-15.46.33-5.28-3.61-9.23-4.29-14.36-.54-4.09,2.31-6.9,2.83-10.78.65-4.8-2.14-6-5.13-9-7.6-7.54-5.85-20.08-3.13-29.35-3.24,3.65-7.66,7.19-8.7,12.15a31.43,31.43,0,0,0,1,16.81c1.4,4.26,4.85,7.6,3.28,11.74s-5.45,7.16-5.4,11.9c0,4.13,3.64,6.54,4.3,10.47s-.83,5.86-3.24,8.85a28.86,28.86,0,0,0-6.45,17.63c-.18,4,.52,7.67-.88,11.45-.55,1.49-1.5,2.76-1.74,4.28,4.14-2.29,9.24-1.74,13.75-1.07C357.45,412.48,363.93,414.41,366.6,412Z"/><path class="g" d="M70.6,429.1c3.52-1.45,6.1-8.38,6.64-11.87.73-4.71-2-9-3.89-13.11-1.48-3.26-3-6.4-1.76-10,.95-2.79,3.3-4.8,4.7-7.33,3.76-6.8,3.4-17.49-.43-24.19-3.92-6.87-6.74-15.72-1.29-22.94.36,3.29-.59,6.16.6,9.49,1.59,4.45,4.46,8.3,7.31,12s4,8.36,4.49,13c.42,4.28-1.5,7.38-3.63,11-4.89,8.28,2.86,14.78,5.86,22.51,1.86,4.8,1.08,9.66.27,14.59-.45,2.75-.52,5.84-1.86,8.33-3.55-1.48-7.67-.52-11.33-.09C74.6,430.7,71.68,431.29,70.6,429.1Z"/><path class="g" d="M148.75,423.81q-5.9.58-11.8,1.2a8.25,8.25,0,0,1,.44-2.86c.95-2.79,3.3-4.8,4.7-7.33,3.76-6.8,3.4-17.49-.43-24.19-3.92-6.87-6.74-15.72-1.29-22.94.36,3.29-.59,6.16.6,9.49,1.59,4.45,4.46,8.3,7.31,12s4,8.36,4.49,13c.42,4.28-1.5,7.38-3.63,11C146.87,417,147.31,420.44,148.75,423.81Z"/><path class="g" d="M62.86,424.32q5.88-.75,11.77-1.47a8.26,8.26,0,0,0-1.07-2.69c-1.55-2.51,2.58-9.27.64-11.43-5.18-5.79-14.08-11-11.85-18.34,2.29-7.58,3.06-16.83-3.87-22.65.38,3.29,1.95,5.87,1.53,9.38-.55,4.69-2.49,9.09-4.45,13.31s-2.07,9.05-1.47,13.69c.55,4.26,3.11,6.86,6,9.9C63.16,417.24,63.5,420.71,62.86,424.32Z"/><path class="g" d="M158.2,436.7c-2.36-3.76-4.46-7.66-6.73-11.48-1.56-2.62-3.25-5.39-2.95-8.63.22-2.36,1.93-4.36,2.52-6.61a30.17,30.17,0,0,0,.53-6.3c.2-4.52-1.13-6.13-3.28-9.91-1.86-3.26-2.37-6.11-1.07-9.69,1.41-3.89,3.71-6.32,5.9-9.59s1.34-7.26,1.22-10.86c-.19-5.65-.64-14,5.18-17.19a18.94,18.94,0,0,0-.88,12.23c1.24,4.43,5,7.34,5.19,12.13.19,5-3.88,8.05-4.92,12.67-.95,4.22.37,7.46,2.88,10.76s6.1,6,7.12,10.14c.93,3.78-1.1,6.91-1.49,10.56-.79,7.38,8.63,11.72,6.64,19.53-2.72-.16-4.28-2.07-7.52-1.37C163.67,433.72,159.72,436.8,158.2,436.7Z"/><path class="g" d="M132.31,433.9c-2.73-4.37-5.18-8.89-7.81-13.32-1.81-3-3.77-6.25-3.42-10,.26-2.74,2.24-5.06,2.92-7.67a35,35,0,0,0,.62-7.31c.23-5.24-1.31-7.11-3.8-11.49-2.16-3.78-2.75-7.09-1.24-11.25,1.64-4.51,4.3-7.33,6.85-11.13,2.44-3.63,1.55-8.43,1.41-12.6-.22-6.56-.74-16.22,6-20a22,22,0,0,0-1,14.2c1.43,5.14,5.81,8.51,6,14.08.22,5.77-4.5,9.34-5.71,14.7-1.1,4.9.43,8.66,3.34,12.48s7.08,6.95,8.26,11.76c1.08,4.39-1.27,8-1.72,12.26-.92,8.57,10,13.6,7.71,22.67-3.16-.19-5-2.41-8.72-1.59C138.65,430.45,134.07,434,132.31,433.9Z"/><path class="g" d="M103.91,437.57c-2.73-4.37-5.18-8.89-7.81-13.32-1.81-3-3.77-6.25-3.42-10,.26-2.74,2.24-5.06,2.92-7.67a35,35,0,0,0,.62-7.31c.23-5.24-1.31-7.11-3.8-11.49-2.16-3.78-2.75-7.09-1.24-11.25,1.64-4.51,4.3-7.33,6.85-11.13,2.44-3.63,1.55-8.43,1.41-12.6-.22-6.56-.74-16.22,6-20a22,22,0,0,0-1,14.2c1.43,5.14,5.81,8.51,6,14.08.22,5.77-4.5,9.34-5.71,14.7-1.1,4.9.43,8.66,3.34,12.48s7.08,6.95,8.26,11.76c1.08,4.39-1.27,8-1.72,12.26-.92,8.57,10,13.6,7.71,22.67-3.16-.19-5-2.41-8.72-1.59C110.25,434.12,105.67,437.69,103.91,437.57Z"/><path class="g" d="M90.68,430.72c2.73-4.37,5.18-8.89,7.81-13.32,1.81-3,3.77-6.25,3.42-10-.26-2.74-2.24-5.06-2.92-7.67a35,35,0,0,1-.62-7.31c-.23-5.24,1.31-7.11,3.8-11.49,2.16-3.78,2.75-7.09,1.24-11.25-1.64-4.51-4.3-7.33-6.85-11.13-2.44-3.63-1.55-8.43-1.41-12.6.22-6.56.74-16.22-6-20a22,22,0,0,1,1,14.2c-1.43,5.14-5.81,8.51-6,14.08-.22,5.77,4.5,9.34,5.71,14.7,1.1,4.9-.43,8.66-3.34,12.48s-7.08,6.95-8.26,11.76c-1.08,4.39,1.27,8,1.72,12.26.92,8.57-10,13.6-7.71,22.67,3.16-.19,5-2.41,8.72-1.59C84.34,427.27,88.92,430.84,90.68,430.72Z"/><path class="g" d="M139.15,421.79c2.12-4.57,4.42-8.77,3.73-14A84.19,84.19,0,0,0,140.34,397c-1.55-5.71-3.85-12.62-.93-18.33,1.47-2.88,3.19-5.06,3.61-8.43.45-3.6-.82-6.75-1.88-10.14-2.13-6.84-3-14,0-20.79.57,8.35,1,15.21,5.54,22.52,2.07,3.3,4.53,6.1,4.78,10.09.26,4.16-.64,7.81-1.14,11.88-.82,6.72,3.56,12.69,4.5,19.29a68.38,68.38,0,0,1,.17,12.78c-.12,2.71.5,4.59.92,7.14-5.63-1.2-13.85,2.75-18.76-.74C137.25,422,137.4,422,139.15,421.79Z"/><path class="g" d="M78.66,426c-2.12-4.57-4.42-8.77-3.73-14a84.17,84.17,0,0,1,2.53-10.78c1.55-5.71,3.85-12.62.93-18.33-1.47-2.88-3.19-5.06-3.61-8.43-.45-3.6.82-6.75,1.88-10.14,2.13-6.84,3-14,0-20.79-.57,8.35-1,15.21-5.54,22.52-2.07,3.3-4.53,6.1-4.78,10.09-.26,4.16.64,7.81,1.14,11.88.82,6.72-3.56,12.69-4.5,19.29a68.38,68.38,0,0,0-.17,12.78c.12,2.71-.5,4.59-.92,7.14,5.63-1.2,13.85,2.75,18.76-.74C80.56,426.16,80.41,426.23,78.66,426Z"/><path class="g" d="M106.29,435.5c2.12-4.57,4.42-8.77,3.73-14a84.19,84.19,0,0,0-2.53-10.78c-1.55-5.71-3.85-12.62-.93-18.33,1.47-2.88,3.19-5.06,3.61-8.43.45-3.6-.82-6.75-1.88-10.14-2.13-6.84-3-14,0-20.79.57,8.35,1,15.21,5.54,22.52,2.07,3.3,4.53,6.1,4.78,10.09.26,4.16-.64,7.81-1.14,11.88-.82,6.72,3.56,12.69,4.5,19.29a68.38,68.38,0,0,1,.17,12.78c-.12,2.71.5,4.59.92,7.14-5.63-1.2-13.85,2.75-18.76-.74C104.4,435.69,104.54,435.75,106.29,435.5Z"/><path class="g" d="M105.56,413.42c3.6.31,9.66-5.49,10.65-9.19,1.61-6-.2-11.2-3.4-16.15-3-4.66-7.51-9.71-7.87-15.46-.33-5.28,3.61-9.23,4.29-14.36.54-4.09-2.31-6.9-2.83-10.78-.65-4.8,2.14-6,5.13-9,7.6-7.54,5.85-20.08,3.13-29.35,3.24,3.65,7.66,7.19,8.7,12.15a31.43,31.43,0,0,1-1,16.81c-1.4,4.26-4.85,7.6-3.28,11.74s5.45,7.16,5.4,11.9c0,4.13-3.64,6.54-4.3,10.47s.83,5.86,3.24,8.85a28.86,28.86,0,0,1,6.45,17.63c.18,4-.52,7.67.88,11.45.55,1.49,1.5,2.76,1.74,4.28-4.14-2.29-9.24-1.74-13.75-1.07C114.72,413.94,108.23,415.87,105.56,413.42Z"/><path class="g" d="M647,429.73c3.29-1.34,5.7-7.76,6.21-11,.69-4.36-1.89-8.34-3.64-12.14-1.39-3-2.78-5.92-1.65-9.23.89-2.58,3.08-4.44,4.4-6.79,3.51-6.29,3.18-16.2-.4-22.4-3.67-6.37-6.31-14.56-1.2-21.25.34,3-.55,5.7.56,8.78,1.49,4.12,4.17,7.69,6.84,11.09s3.78,7.75,4.2,12.05c.39,4-1.4,6.83-3.4,10.17-4.58,7.67,2.68,13.69,5.48,20.84,1.74,4.44,1,8.94.26,13.51-.42,2.55-.49,5.41-1.74,7.72-3.32-1.37-7.18-.48-10.6-.08C650.69,431.2,648,431.75,647,429.73Z"/><path class="g" d="M705.23,424.83q-5.52.54-11,1.11a7.57,7.57,0,0,1,.41-2.65c.89-2.58,3.08-4.44,4.4-6.79,3.51-6.29,3.18-16.2-.4-22.4-3.67-6.37-6.31-14.56-1.2-21.25.34,3-.55,5.7.56,8.78,1.49,4.12,4.17,7.69,6.84,11.09s3.78,7.75,4.2,12.05c.39,4-1.4,6.83-3.4,10.17C703.47,418.51,703.89,421.71,705.23,424.83Z"/><path class="g" d="M639.71,425.3q5.5-.7,11-1.36a7.6,7.6,0,0,0-1-2.49c-1.45-2.32,2.41-8.59.6-10.59-4.85-5.36-13.17-10.15-11.09-17,2.14-7,2.86-15.58-3.62-21,.36,3,1.82,5.43,1.44,8.69-.52,4.35-2.33,8.41-4.16,12.32s-1.93,8.38-1.37,12.67c.52,3.95,2.91,6.35,5.61,9.17C640,418.75,640.31,422,639.71,425.3Z"/><path class="g" d="M714.08,436.76c-2.2-3.49-4.17-7.1-6.3-10.63-1.46-2.43-3-5-2.76-8,.21-2.18,1.81-4,2.35-6.12a27.66,27.66,0,0,0,.5-5.83c.18-4.18-1.05-5.67-3.07-9.17-1.74-3-2.22-5.66-1-9,1.32-3.6,3.47-5.85,5.52-8.88s1.25-6.73,1.14-10.06c-.18-5.24-.6-12.95,4.84-15.92a17.37,17.37,0,0,0-.82,11.33c1.16,4.1,4.68,6.8,4.85,11.23.18,4.6-3.63,7.46-4.6,11.73-.89,3.91.34,6.91,2.7,10s5.71,5.54,6.66,9.39c.87,3.5-1,6.4-1.39,9.78-.74,6.84,8.07,10.86,6.21,18.09-2.55-.15-4-1.92-7-1.27C719.19,434,715.5,436.86,714.08,436.76Z"/><path class="g" d="M691.94,440.84c-2.56-4-4.84-8.23-7.31-12.34-1.69-2.81-3.53-5.79-3.2-9.27.24-2.53,2.1-4.69,2.73-7.1a32.09,32.09,0,0,0,.58-6.77c.21-4.85-1.22-6.58-3.56-10.64-2-3.5-2.58-6.57-1.16-10.41,1.53-4.18,4-6.79,6.41-10.31,2.28-3.36,1.45-7.8,1.32-11.67-.21-6.07-.69-15,5.62-18.47a20.15,20.15,0,0,0-1,13.15c1.34,4.76,5.43,7.88,5.63,13,.21,5.34-4.21,8.65-5.34,13.61-1,4.54.4,8,3.13,11.56s6.62,6.43,7.73,10.89c1,4.06-1.19,7.43-1.61,11.35-.86,7.93,9.37,12.6,7.21,21-3-.17-4.65-2.23-8.16-1.47C697.88,437.64,693.59,441,691.94,440.84Z"/><path class="g" d="M678.12,437.57c-2.56-4-4.84-8.23-7.31-12.34-1.69-2.81-3.53-5.79-3.2-9.27.24-2.53,2.1-4.69,2.73-7.1a32.08,32.08,0,0,0,.58-6.77c.21-4.85-1.22-6.58-3.56-10.64-2-3.5-2.58-6.57-1.16-10.41,1.53-4.18,4-6.79,6.41-10.31,2.28-3.36,1.45-7.8,1.32-11.67-.21-6.07-.69-15,5.62-18.47a20.15,20.15,0,0,0-1,13.15c1.34,4.76,5.43,7.88,5.63,13,.21,5.34-4.21,8.65-5.34,13.61-1,4.54.4,8,3.13,11.56s6.62,6.43,7.73,10.89c1,4.06-1.19,7.43-1.61,11.35-.86,7.93,9.37,12.6,7.21,21-3-.17-4.65-2.23-8.16-1.47C684.06,434.37,679.77,437.68,678.12,437.57Z"/><path class="g" d="M665.74,431.22c2.56-4,4.84-8.23,7.31-12.34,1.69-2.81,3.53-5.79,3.2-9.27-.24-2.53-2.1-4.69-2.73-7.1a32.1,32.1,0,0,1-.58-6.77c-.21-4.85,1.22-6.58,3.56-10.64,2-3.5,2.58-6.57,1.16-10.41-1.53-4.18-4-6.79-6.41-10.31-2.28-3.36-1.45-7.8-1.32-11.67.21-6.07.69-15-5.62-18.47a20.15,20.15,0,0,1,1,13.15c-1.34,4.76-5.43,7.88-5.63,13-.21,5.34,4.21,8.65,5.34,13.61,1,4.54-.4,8-3.13,11.56s-6.62,6.43-7.73,10.89c-1,4.06,1.19,7.43,1.61,11.35.86,7.93-9.37,12.6-7.21,21,3-.17,4.65-2.23,8.16-1.47C659.81,428,664.09,431.33,665.74,431.22Z"/><path class="g" d="M696.26,423c2-4.23,4.13-8.12,3.49-13a77.29,77.29,0,0,0-2.37-10c-1.45-5.29-3.6-11.68-.87-17,1.38-2.67,3-4.69,3.38-7.81.42-3.33-.77-6.25-1.75-9.39-2-6.33-2.76-13,0-19.25.53,7.73.89,14.08,5.18,20.86,1.94,3.06,4.23,5.65,4.47,9.34.25,3.85-.6,7.23-1.06,11-.77,6.23,3.33,11.75,4.21,17.87a62.67,62.67,0,0,1,.16,11.83c-.12,2.51.47,4.25.86,6.62-5.26-1.11-13,2.55-17.55-.68C694.48,423.13,694.62,423.19,696.26,423Z"/><path class="g" d="M654.5,426.83c-2-4.23-4.13-8.12-3.49-13a77.3,77.3,0,0,1,2.37-10c1.45-5.29,3.6-11.68.87-17-1.38-2.67-3-4.69-3.38-7.81-.42-3.33.77-6.25,1.75-9.39,2-6.33,2.76-13,0-19.25-.53,7.73-.89,14.08-5.18,20.86-1.94,3.06-4.23,5.65-4.47,9.34-.25,3.85.6,7.23,1.06,11,.76,6.23-3.33,11.75-4.21,17.87a62.68,62.68,0,0,0-.16,11.83c.12,2.51-.47,4.25-.86,6.62,5.26-1.11,13,2.55,17.55-.68C656.28,427,656.14,427.07,654.5,426.83Z"/><path class="g" d="M680.35,435.65c2-4.23,4.13-8.12,3.49-13a77.3,77.3,0,0,0-2.37-10c-1.45-5.29-3.6-11.68-.87-17,1.38-2.67,3-4.69,3.38-7.81.42-3.33-.77-6.25-1.75-9.39-2-6.33-2.76-13,0-19.25.53,7.73.89,14.08,5.18,20.86,1.94,3.06,4.23,5.65,4.47,9.34.25,3.85-.6,7.23-1.06,11-.76,6.23,3.33,11.75,4.21,17.87a62.68,62.68,0,0,1,.16,11.83c-.12,2.51.47,4.25.86,6.62-5.26-1.11-13,2.55-17.55-.68C678.58,435.83,678.71,435.89,680.35,435.65Z"/><path class="g" d="M566.83,408.5c.4-10.89,15.71-15.75,23-20.94,3.55-2.52,8.64-9.31,2.18-11.91-6-2.44-3.79,3.86-6.27,6.52a30.42,30.42,0,0,1-12.2,7.28c-1-2.47,5.4-14.77-.41-12.9-2.71.87-1.47,7.94-4.34,6.52-3.25-1.61-.71-9.74,1-11.59,3.46-3.72,10.92-2.28,15.37-5.72,1.35-1,2.95-2.39,1.58-4.3-1.54-2.16-3.56-.15-5,.39-8.26,3-1-4.36-1.89-7.72-2.08-7.53-5.61,3.91-6.29,5.45-1.71,3.9-3.78,5.25-7,2.6-1.09-.9-.33-2.13-2.31-2.38-2.58-.33-3.23,2.61-3,4.5.19,1.52,3.63,5.58-.73,5.16-3.18-.31-3.66-9.08-2.89-11.4.94-2.83,3.24-4.52,3.55-7.54.19-1.85-.62-7.23-3-7.75-2.78-.6-3.08,3.28-3.32,5.32-.36,3.08-.26,4.32-1.73,6.89-3.88,6.73.77,9.6,2.19,16.46.46,2.23,2.17,7.36-1.42,7.77-2.43.27-3.37-3.8-6.22-2.56-6.61,2.89,5.79,8.12,5.21,10.84-.39,1.84-3.09,1.27-4.4,1.71-.58.2-1,1.36-1.76,1.64s-2.53,0-3.56,0c-2.39,0-4.73-.72-5.66,1.7-1.59,4.1,2.71,4,5.22,4,3.89,0,7.34-1,8.3,3.64.72,3.48-1.23,5.37,1.11,8.62s5.6,4.3,9.55,2.94C564.5,410.74,566.49,407.67,566.83,408.5Z"/><path class="g" d="M544.73,411.24c5.11-8-4.61-14.08-7.23-20.31-1.16-2.75-2.79-5.82-6-4.25-5.42,2.63,1.92,6.12-.37,9.22-2,2.68-5.77-2.94-6.31-4.65-1.49-4.75,2.28-7.9,2.25-11.76,0-2.13-1.49-4.1-3.8-3.35s-2.4,6-3.57,8c-1.48-1.31-1.36-4-3.54-3.84-2.72.16-2.18,3.29-1.88,4.83.56,2.82,3,3.54,3.77,6,1,3.27-1.63,5,1.86,7.91,2.08,1.72,6,2.25,8.64,2,1.89-.16,4.24-1.88,6.07-1.5C541.32,401,539.18,412.09,544.73,411.24Z"/><path class="h" d="M490.19,369.18c5.11-8-4.61-14.08-7.23-20.31-1.16-2.75-2.79-5.82-6-4.25-5.42,2.63,1.92,6.12-.37,9.22-2,2.68-5.77-2.94-6.31-4.65-1.49-4.75,2.28-7.9,2.25-11.76,0-2.13-1.49-4.1-3.8-3.35s-2.4,6-3.57,8c-1.48-1.31-1.36-4-3.54-3.84-2.72.16-2.18,3.29-1.88,4.83.56,2.82,3,3.54,3.77,6,1,3.27-1.63,5,1.86,7.91,2.08,1.72,6,2.25,8.64,2,1.89-.16,4.24-1.88,6.07-1.5C486.79,358.93,484.64,370,490.19,369.18Z"/><path class="h" d="M634.5,314.5c-2.68-4.4-4.84-8.51-2-13.43,2.32-4.08,6.81-6.12,6.48-11.53-.31-5.06-4.73-10.33-7.87-13.93.14,2.1,2.92,7,2,8.81-2,4-5.74.33-7-2.32-2.4-5,1.25-8.89,1-13.77-.32-5.38-5.38-11.73-9-15.43-.16,7.77,3.85,12.77.45,20.65-2.87,6.65-3.79,8.76-.23,15.29,2,3.7,4.37,8.88-.54,10.67-4.25,1.55-6-2.32-8.14-4.87-.71,5.58,4.7,10.3,3.92,15.8-6.18.72-9-7.85-9-12.67,0-6.73.73-11.25-5.49-16.2.35,5.42,3.22,9.51.39,14.79-1.18,2.2-3.1,2.65-3.51,5.32s1.69,6,2.23,8.46c.94,4.29-.49,9.2-6.4,5.79-5.24-3-3.54-15.69-4.87-20.92-1.25,2.84-.83,5.93-1.48,8.91-.78,3.61-2.53,4.9-3.9,8.11-2.62,6.16,2.06,9.88,4.11,15.41,4,.21,7.05-.62,10.93-1.49,6.5-1.45,10,.18,16.35,1.22,9.94,1.63,19.13-3,25.55-10.33C638.07,316.19,637.91,315.14,634.5,314.5Z"/><path class="h" d="M704.5,270.5c-6.87-3.73-6.19-8.15-6.08-14.95-4.27-.2-8.51.95-11.4-3-1.75-2.41-2.3-9.16,2-7.24,2.35,1,2.93,9.89,7,4.23,2.1-2.93-1.39-6.73-4-8.5-6.46-4.34-13-2.72-18.13-10.24-1.83-2.68-5-8.66-2.39-11.92,2.82-3.52,3.66.42,4.27,2.92.55,2.27-.52,6.36,2.74,7.16,4.4,1.09,2.51-4.28,4.34-5.92,5.09-4.58,2.38,3.78,2.65,5.24,1.14,6.35,3.56,1.68,7.53,2.77s4.38,7.59,9.62,5.94c5.64-1.78,2.71-9,1.33-12.66-2-5.21-2.53-6.46.77-10.75,2.64-3.43,3.62-3.69,3.16-9.08-.21-2.39-.13-12.78,3.66-5.87.79,1.44-.56,4-.45,5.42.15,1.7,1.36,3.24,1.35,5.27,0,3.33-4.59,6.66-2.92,10,1.58,3.13,4.88,1.41,5.61,6.58,5.68,1,4.9-1,7.47-4.46,1.41-1.9,5.67-7.17,8.33-2.91,2.84,4.53-8,8.62-7.47,13.56.41,4.13,8.37,1.81,6.24,5.21-2.63,4.2-19-2.16-16.8,6.69,2.65,10.88,22.6-3.73,24.13-10.22.89-3.78-.39-7.33,0-11.15.33-3.06.32-11.63,1.59-14,2.63-4.91,5.62-1.74,5.38,2.45-.12,2-2,4.32-2.35,6.46-.39,2.72.59,4.31.81,6.87.76,8.75-10.17,23.73,6,14.71,5.68-3.18,7.06,1.07,2.28,5.6-7.91,7.5-13.3,8.31-13.51,20.48-.15,8.35-6.45,7-13.83,7.3S705.91,273.42,704.5,270.5Z"/><path class="h" d="M506.43,359c-6.87-3.73-6.19-8.15-6.08-14.95-4.27-.2-8.51.95-11.4-3-1.75-2.41-2.3-9.16,2-7.24,2.35,1,2.93,9.89,7,4.23,2.1-2.93-1.39-6.73-4-8.5-6.46-4.34-13-2.72-18.13-10.24-1.83-2.68-5-8.66-2.39-11.92,2.82-3.52,3.66.42,4.27,2.92.55,2.27-.52,6.36,2.74,7.16,4.4,1.08,2.51-4.28,4.34-5.92,5.09-4.58,2.38,3.78,2.65,5.24,1.14,6.35,3.56,1.68,7.53,2.77s4.38,7.59,9.62,5.94c5.64-1.78,2.71-9,1.33-12.66-2-5.21-2.53-6.46.77-10.75,2.64-3.43,3.62-3.69,3.16-9.08-.21-2.39-.13-12.78,3.66-5.87.79,1.44-.56,4-.45,5.42.15,1.7,1.36,3.24,1.35,5.27,0,3.33-4.59,6.66-2.92,10,1.58,3.13,4.88,1.41,5.61,6.58,5.68,1,4.9-1,7.47-4.46,1.41-1.9,5.67-7.17,8.33-2.91,2.84,4.53-8,8.62-7.47,13.56.41,4.13,8.37,1.81,6.24,5.21-2.63,4.2-19-2.16-16.8,6.69,2.65,10.88,22.6-3.73,24.13-10.22.89-3.78-.39-7.33,0-11.15.33-3.06.32-11.63,1.59-14,2.63-4.91,5.62-1.74,5.38,2.45-.12,2-2,4.32-2.35,6.46-.39,2.72.59,4.31.81,6.87.76,8.75-10.17,23.73,6,14.71,5.68-3.18,7.06,1.07,2.28,5.6-7.91,7.5-13.3,8.31-13.51,20.48-.15,8.35-6.45,7-13.83,7.3S507.84,361.92,506.43,359Z"/><path class="h" d="M87.17,244.65c5.81-5.24,4.1-9.37,2.41-16,4.1-1.2,8.49-1.07,10.37-5.63,1.13-2.75.09-9.44-3.66-6.56-2,1.57-.53,10.3-5.8,5.75-2.73-2.36-.23-6.87,1.93-9.21,5.26-5.73,12-5.69,15.22-14.2,1.15-3,2.83-9.59-.47-12.15-3.57-2.77-3.46,1.27-3.47,3.84,0,2.34,2,6.06-1,7.6-4,2.09-3.44-3.57-5.6-4.74-6-3.26-1.43,4.23-1.34,5.71.38,6.44-3.07,2.47-6.67,4.45s-2.48,8.4-8,8c-5.9-.41-4.75-8.12-4.26-12,.7-5.52.95-6.88-3.27-10.27-3.37-2.71-4.39-2.73-5.2-8.08-.36-2.37-2.86-12.46-4.93-4.85-.43,1.59,1.5,3.8,1.7,5.17.26,1.68-.57,3.47-.08,5.44.79,3.23,6,5.4,5.17,9-.8,3.41-4.41,2.51-3.92,7.71-5.28,2.35-5,.17-8.31-2.58-1.82-1.51-7.19-5.65-8.78-.88-1.7,5.07,9.75,6.52,10.44,11.43.57,4.11-7.71,3.72-4.85,6.53,3.54,3.47,17.93-6.54,17.9,2.57,0,11.2-22.84,1.67-25.85-4.28-1.75-3.46-1.34-7.22-2.64-10.84-1-2.9-3-11.23-4.82-13.24-3.71-4.16-5.87-.37-4.66,3.64.59,1.94,3,3.72,3.79,5.73,1,2.56.44,4.33.82,6.87,1.31,8.69,15.45,20.69-2.34,15.69-6.27-1.76-6.61,2.69-.91,6,9.44,5.44,14.88,5,17.94,16.74,2.1,8.08,7.9,5.28,15.16,3.86S86.48,247.82,87.17,244.65Z"/><path class="h" d="M783.59,244.88c-42.07-1.88-94.62-2.05-118.8,25-20.3,22.72-29.47,47.54-63.09,47-25.37-.44-52.48-15.66-71,4.32-5.42,5.84-6.43,11.36-13.18,16.3-8.26,6-19.13,5.25-27.88,9.33S474.56,360.16,465.55,363c-15.79,4.93-34.23-8.14-50.24-2.24-8.52,3.14-25.54,18.36-30.41,25.42-6.55,9.5-.66,15.85-5.13,24.53-12.8,24.9-95.5,13.9-115.73,11.09-16.08-2.22-29-14-43.69-16.91-12.1-2.42-25.65-1.68-38.06-4.43-12.89-2.87-23.1-11.51-36.6-11.88C131.54,360.18,111,330.17,112.58,299c.72-14.41,1.57-33.61-3.16-47.05-3.87-11-53.81-39.09-64.54-44.73-8.81-4.62-82.33,0-82.33,0-.84,15.44,3.31,31.15,6.3,47q.6,3.12,1.11,6.25a116.65,116.65,0,0,1,1.78,20.12c16.74-6.51,40.91,13.68,48.47,26.95,13.11,23,23.11,47.18,49.85,56.08,12.59,4.19,24.72,4.95,33.66,16.5,5,6.43,4.23,17.72,10.79,23.79,6.92,6.4-10.74,42.54-5,50.41,16.83,22.94,114-5.56,139.57-2.66a415,415,0,0,0,41.48,2.62c12.81.17,25.71-.25,38.5-1.32,11.22-.94,22.36-2.38,33.26-4.35,51.24-9.27,143.48,25.53,169.76-35.87,4.29-10,.74-24.23,6.72-33.07,4.8-7.11,21.13-18.89,28.8-22.26,11-4.83,28.49-5.33,40.71-4.72,12.47.62,22-3.54,31.5,1.66,20.11,11,17.94,40,30.34,55.88,8.52,10.88,24.6,23,33.31,31,5.82,5.34,43.65.2,51.09-1.39,8.15-1.74,15.28-5.58,23.67-6.66a44.08,44.08,0,0,1,5.35-.32Z"/><path class="i" d="M289.71,454l.88.26a415,415,0,0,1-41.48-2.62c-25.6-2.9-122.74,25.6-139.57,2.66-5.77-7.87,11.89-44,5-50.41-6.56-6.07-5.81-17.36-10.79-23.79-8.94-11.55-21.07-12.31-33.66-16.5-26.74-8.9-36.74-33.07-49.85-56.08-7.56-13.27-31.73-33.46-48.47-27,.09-8.81-1.22-17.61-2.89-26.37,16.16-2,32.63-5.33,46.42-1.06,26.1,8.07,29.87,40,42,59.28,4.53,7.21,13.82,20.74,22.26,23.94,7.67,2.9,12.87-2.08,19.53,2.51,9.28,6.38,7.95,26.75,11.93,36,3.44,8.06,9.56,11,13.68,18,5,8.54,4.4,17.77,10.4,25.91,7.59,10.31,19.74,15.6,30.49,19.49,19.58,7.08,37.34,12.62,58,10.39C244.9,446.36,268.9,447.65,289.71,454Z"/><path class="i" d="M783.59,341.2c-15.14,10.48-26.37,12.57-49.2,14.52-15.77,1.33-29.3,2.23-42.93-1.76-17.73-5.18-32.6-11.57-51.2-11.74-45.68-.43-90-4.46-122.57,32.22-7.24,8.15-9.83,16.61-18.1,22.54C492.15,402.29,477,408.68,468,412.4c-5.64,2.35-13.35,2.25-19,4.92-10.53,5-16.07,13.14-27.21,16.26-11.36,3.19-27.48,3.61-39.36,4.66-15.34,1.35-27.58,4.57-42.24,10.3-4.25,1.66-7.89,3.13-11.16,4.38,11.22-.94,22.36-2.38,33.26-4.35,51.24-9.27,143.48,25.53,169.76-35.87,4.29-10,.74-24.23,6.72-33.07,4.8-7.11,21.13-18.89,28.8-22.26,11-4.83,28.49-5.33,40.71-4.72,12.47.62,22-3.54,31.5,1.66,20.11,11,17.94,40,30.34,55.88,8.52,10.88,24.6,23,33.31,31,5.82,5.34,43.65.2,51.09-1.39,8.15-1.74,15.28-5.58,23.67-6.66a44.08,44.08,0,0,1,5.35-.32Z"/><path class="i" d="M783.59,288.71c-7.95,2.29-16.22,4.5-24.89,6.82-40.53,10.85-81.94,36.39-123.67,39.28-27.69,1.92-53.94,6.18-81.57,9.09-19.85,2.1-38.78,9.46-52.07,24.17-12.54,13.9-18.6,32.84-31.8,45.64-19.73,19.12-47.6,25.73-74.74,26-31.38.3-61.62-5.51-93.1-4.17-29.66,1.27-62.48,1.23-91.8-4.46-28.62-5.55-58.33-5.72-74.85-31.71-20.06-31.58-20.42-59.5-51.71-83.75C71,306,58.3,292.87,43.64,286.67c-15.06-6.36-33.57-2-48.42-8.33-9.34-4-16.47-12.78-25.26-17.91a116.65,116.65,0,0,1,1.78,20.12c16.74-6.51,40.91,13.68,48.47,26.95,13.11,23,23.11,47.18,49.85,56.08,12.59,4.19,24.72,4.95,33.66,16.5,5,6.43,4.23,17.72,10.79,23.79,6.92,6.4-10.74,42.54-5,50.41,16.83,22.94,114-5.56,139.57-2.66a415,415,0,0,0,41.48,2.62c12.81.17,25.71-.25,38.5-1.32,11.22-.94,22.36-2.38,33.26-4.35,51.24-9.27,143.48,25.53,169.76-35.87,4.29-10,.74-24.23,6.72-33.07,4.8-7.11,21.13-18.89,28.8-22.26,11-4.83,28.49-5.33,40.71-4.72,12.47.62,22-3.54,31.5,1.66,20.11,11,17.94,40,30.34,55.88,8.52,10.88,24.6,23,33.31,31,5.82,5.34,43.65.2,51.09-1.39,8.15-1.74,15.28-5.58,23.67-6.66a44.08,44.08,0,0,1,5.35-.32Z"/></g></g></svg>