<svg xmlns="http://www.w3.org/2000/svg" xmlns:xlink="http://www.w3.org/1999/xlink" viewBox="0 0 396.4 49.42"><defs><style>.a{fill:none;}.b{isolation:isolate;}.c{clip-path:url(#a);}.d{fill:#424a71;}.e{fill:#bacdec;}.e,.h,.k,.m,.q{mix-blend-mode:multiply;}.f,.g,.l,.p,.s{opacity:0.53;}.f{fill:url(#b);}.g{fill:url(#c);}.h{fill:#d3d2d9;}.i{clip-path:url(#d);}.j{fill:#3c4367;}.k{fill:#b2c4e2;}.l{fill:url(#e);}.m{opacity:0.1;}.n{clip-path:url(#f);}.o{fill:#616c84;}.p{fill:url(#g);}.q{fill:#a4b5d0;}.r{clip-path:url(#h);}.s{fill:url(#i);}</style><clipPath id="a"><path class="a" d="M401,16.25c-.36,3.66-3.39,5.77-4.62,9-1.17,3.06-.48,6.61-1.38,9.75-3.86,13.38-27.65,6.12-38.07,7.27H310c-5.7,0-15.55-.42-21-2-4.51-1.31-6.26-2.88-5.4-8,1.87-11.16,16.06-15.41,25-19A332.29,332.29,0,0,1,341.47,2.15c5.46-1.53,9.7-2.83,15.3-1.75,5.2,1,10.27,2.78,15.61,2.88C383,3.48,402.82-2.08,401,16.25Z"/></clipPath><linearGradient id="b" x1="-737.02" y1="52.53" x2="-751.36" y2="-22.8" gradientTransform="matrix(-1, 0, 0, 1, -402.41, 0)" gradientUnits="userSpaceOnUse"><stop offset="0.01" stop-color="#fdffff" stop-opacity="0"/><stop offset="0.11" stop-color="#f5fbfc" stop-opacity="0.13"/><stop offset="0.44" stop-color="#dff0f4" stop-opacity="0.5"/><stop offset="0.71" stop-color="#cee7ed" stop-opacity="0.77"/><stop offset="0.9" stop-color="#c4e2e9" stop-opacity="0.94"/><stop offset="1" stop-color="#c0e0e8"/></linearGradient><linearGradient id="c" x1="-680.96" y1="41.86" x2="-695.29" y2="-33.47" xlink:href="#b"/><clipPath id="d"><path class="a" d="M324.42,29.46c.64,2.41-.24,3.79.27,5.87s3.36,4.46,2.43,6.19c-4.15,7.78-18,5.17-27,5.93-8,.38-15.72-.16-23.69-.19a26.54,26.54,0,0,1-8.93-1.54c-2.08-.91-2.76-2-2.78-5.17-.05-6,6.58-10,11.56-13.06a92.7,92.7,0,0,1,12.87-7,10.91,10.91,0,0,1,6.66-1.09c2.74.42,5.95,1.42,8.89,1.37C313.48,20.59,322,20.26,324.42,29.46Z"/></clipPath><linearGradient id="e" x1="-702.56" y1="144.73" x2="-713.36" y2="87.97" gradientTransform="matrix(-1.01, -0.02, -0.02, 0.73, -421.41, -73.1)" gradientUnits="userSpaceOnUse"><stop offset="0.01" stop-color="#fdffff" stop-opacity="0"/><stop offset="0.08" stop-color="#f7fbfc" stop-opacity="0.09"/><stop offset="0.42" stop-color="#dcecef" stop-opacity="0.47"/><stop offset="0.69" stop-color="#c8e0e6" stop-opacity="0.76"/><stop offset="0.9" stop-color="#bcd9e0" stop-opacity="0.93"/><stop offset="1" stop-color="#b7d6de"/></linearGradient><clipPath id="f"><path class="a" d="M18.8,13.78c-5.54,0-9.12,3.21-13.34,7.48-2.94,3-7,5.57-4.87,11,2.47,6.28,7.32,8,12.24,8.27,8.63.45,17-1.8,25.64-1.41,6.12.28,12,2.4,17.19-3.12,4.21-4.49,4-9.11.76-14.06-5-7.61-25.17-8.38-29-8.86C24.53,12.7,22.21,13.53,18.8,13.78Z"/></clipPath><linearGradient id="g" x1="7.2" y1="21.32" x2="51.34" y2="21.32" gradientUnits="userSpaceOnUse"><stop offset="0.01" stop-color="#fdffff" stop-opacity="0"/><stop offset="0.01" stop-color="#fcffff" stop-opacity="0.01"/><stop offset="0.38" stop-color="#d9e6e9" stop-opacity="0.43"/><stop offset="0.67" stop-color="#bfd4d9" stop-opacity="0.74"/><stop offset="0.89" stop-color="#afc9d0" stop-opacity="0.93"/><stop offset="1" stop-color="#a9c5cc"/></linearGradient><clipPath id="h"><path class="a" d="M65.2,30.4c4,0,6.55,2.28,9.6,5.31,2.12,2.11,5,4,3.5,7.8C76.52,48,73,49.2,69.49,49.38c-6.21.32-12.22-1.28-18.44-1-4.4.2-8.63,1.7-12.36-2.22-3-3.19-2.87-6.47-.55-10,3.58-5.4,18.1-6,20.82-6.29C61.09,29.63,62.75,30.22,65.2,30.4Z"/></clipPath><linearGradient id="i" x1="39.97" y1="37" x2="76.06" y2="37" xlink:href="#g"/></defs><title>seafloor-introduction-rocks</title><g class="b"><g class="c"><path class="d" d="M396.4-.57c-6.68-2.08-16,0-22.29-.16-5.65-.13-11-2.29-16.51-3.51-5.93-1.32-10.4.26-16.18,2.13a320.62,320.62,0,0,0-34.78,13.59c-9.48,4.34-24.48,9.52-26.46,23.12-.91,6.24.94,8.16,5.71,9.75,5.76,1.92,16.17,2.44,22.2,2.44h49.71c10-1.28,31.59,5.88,38.59-4.92Z"/><path class="e" d="M348.8,4.11c.58,0,2.93.71,2.7,1.67s-3.7.52-4.18.51c-.94,0-5.62.08-4.08-1.63.74-.82,4.7-1.43,5.39-.37"/><path class="e" d="M323.3,7.28c3.19.2,7.36-.13,9.84,2.2-1.46,2.19-4.49,1.91-6.76,2-4,.08-7,1.84-10.29,3.9-3.56,2.24-8.24,1.44-12.38,1.65a48.08,48.08,0,0,1-7.29,0c-.76-.08-2.8,0-3.23-.68-2.1-3.47,15.91-5.85,17.74-6.25,2.6-.57,4.72-2.41,7.32-2.83C319.86,6.92,321.69,7.54,323.3,7.28Z"/><path class="e" d="M396.4,7.47c-2.46,2.29-4.95,4.57-8.45,5.33-5.32,1.16-8.37.56-13.09,3.66a23.56,23.56,0,0,1-9.08,3.39c-6,1.21-10.87,2.75-16.89,2.58-6.43-.18-12.69.5-19-1-2.78-.67-5.51-1.67-8.37-1.59-3.42.1-5.56,2-8.65,3-4.6,1.41-11.36,1.49-16,1.36-5.06-.14-13.68-1.59-17.76,1.93,4,1.83-2.54,8.85-2.51,12.21.07,7.94,14.52,12.12,20.52,11,12.13-2.36,23-6.47,35.61-6.53a217.9,217.9,0,0,1,32.31,2.7c9.26,1.32,19.16,4.38,27.78-.53a41.47,41.47,0,0,0,3.56-2.26Z"/><path class="f" d="M396.4-.55a6.9,6.9,0,0,0-3.93-2.67c2.44,4,4.42,6.86.06,10.54-4,3.34-11.29,4.84-16.2,5.72-6,1.07-16.11,8.35-15.41,9.17-3.78-.56-7.78-1.76-12-1.94-5.87-.24-11.66,2.29-17.45,2-14.69-.64-30.22,1.08-45.18-.43,3.49.91,6.94,2,10.58,2-.24,2.11-1.18,5.44-.42,7.27-.51-2.09,2-4.78,2-4.78,7.46-4.92,31.68-2.08,36.5-2.07,11,0,27.56-4,32,8.85-.12-1.84-1.2-11,0-12.37,1.8-2.19,10.31-3,13.31-4.23a62,62,0,0,1,16-4.23l.12,0Z"/><path class="g" d="M278.59,20.77c2.55.49,5.13.84,7.73,1.1A26.53,26.53,0,0,0,278.59,20.77Z"/><path class="e" d="M396.4,15.71a19.59,19.59,0,0,0-3.9,2c-4.29,3-6.66,8.46-11.19,11.51-4.34,2.92-8.5,3.41-13.66,3.15-2.57-.13-5.58-.78-8.15-.3-2.36.45-3.16,2-5.2,2.82-5.76,2.4-12.55,0-18.36-.76a151.18,151.18,0,0,0-19.4-1.08c-7.8-.06-16.65,1.27-24.11-1.37-5.39-1.91-11-4.53-16.8-2.29,4.77,2.64,4.12,8.37,5.69,10.82,2.06,3.22,6.15,4.1,9.61,4.53,8.6,1.08,17.1,2.54,25.67,3.83a239.52,239.52,0,0,0,43.64,3.06c10.9-.35,24.38,2,33.18-5.87a15.4,15.4,0,0,0,3-3.54Z"/></g><path class="h" d="M317.17,19.89a114.63,114.63,0,0,0-32.3,5.84c-3.78,1.28-8,3.92-6.39,6.67,1.14,1.9,4.46,2.45,7.31,2.75a554.75,554.75,0,0,0,74.84,2.78c7.9-.26,28.69-4,21.25-5.92C360,26.36,342.73,17.11,321.44,19.17c-2.11.2-4.21.49-6.33.52"/><g class="i"><path class="j" d="M326.09,28.78c.76,3-.06,4.71.7,7.25s3.55,5.23,1.42,7.49c-7.47,7.93-19,6.13-30.14,7.5-8.26.55-15.63,0-23.83-.66a25.13,25.13,0,0,1-8.62-2.13c-2.1-1.12-2.83-2.4-2.74-6.17.16-6.61,6.72-11.6,12.22-15.43a97.77,97.77,0,0,1,13.65-8.17c2.11-1,4-1.91,7.08-1.37,2.81.5,6.14,1.62,9.33,1.53C315.73,18.32,323.38,18.19,326.09,28.78Z"/><path class="k" d="M292.55,21.3c.26,0,1.49.31,1.58.78s-1.61.27-1.83.27c-.43,0-2.43.09-2.08-.73a2.06,2.06,0,0,1,2.28-.24"/><path class="k" d="M282.29,23.52c1.43-.06,3.11-.39,4.64.64-.2,1.12-1.59,1.13-2.6,1.27-1.78.25-2.87,1.32-4.11,2.67s-3.83,1.39-5.93,1.8a19.77,19.77,0,0,1-3.8.45c-.41,0-1.49.18-1.78-.22-1.45-2,7.47-4.23,8.29-4.55,1.17-.45,1.93-1.51,3-1.86C280.72,23.51,281.61,23.73,282.29,23.52Z"/><path class="k" d="M261.66,36.75c2.11-2.27,7.08-1.77,9.87-2,2.56-.24,6.22-.86,8.37-2.09,1.45-.82,2.16-2.11,3.83-2.41a14.47,14.47,0,0,1,4.49.36c3.46.52,6.26,0,9.51.27,3,.29,5-.4,7.83-.83a6.13,6.13,0,0,0,3.83-1.62c1.65-1.69,3.62-1.2,6.44-1.75,3.21-.63,3.88-4.36,6.72-5.88,1,1.58,2.38,3.43,3.72,5.24s4.69,5.18,5.55,7.14c1,2.35,1.4,6.25.64,8.13-1.15,2.83-7,5.32-11.37,6.8a37.55,37.55,0,0,1-18,1.68c-5.52-.78-11.8-1.24-17.19-1.79s-11.4,2.62-15.62,3.17c-2.09.27-9.06-2.13-9.4-6.87C260.78,42.28,264.1,37.85,261.66,36.75Z"/><path class="l" d="M316.17,17.17c1.63,2.11,3.12,3.91,1.17,6.13-1.77,2-5.62,2.73-8.16,3.08-3.09.43-10,3.42-12.15,3.2-3-.3-5,1.17-7.81,1.42-9.37.84-18.36,3-28.26,2.4,3.62-.23,7.11,1.6,10.54,1.11.11,1.33-.06,3.53.55,4.68-.5-1.34.63-3.23.63-3.23,5.1-3.54,13.08-3.36,18.81-3.95,6.94-.71,19.64-2.69,21-3.32a23.87,23.87,0,0,1,8.17-2.09C323.66,26.33,320.26,17.87,316.17,17.17Z"/><path class="k" d="M259.84,38.86c3.28-1.35,6.68,0,10,1,4.53,1.31,9.41-.27,13.72-.78,3.56-.42,7.22-.75,10.43,0,2.93.64,5.81,3.05,9.85.87,1.43-.77,1.78-2,2.92-2.24s3.11.4,4.57.64c2.93.48,5.11.38,6.38-1.27s.64-5.14,2.21-6.93,5.49-2.6,8.36-2.47c-.49,3.05-3.07,4.87-1.55,7.95,2.77,5.61.64,9.8-5.68,13-5.65,2.88-13,3.39-19.68,3.64-7.75.28-16.44.89-24-.74-3.27-.7-5.92-1.9-9.49-2.83a6,6,0,0,1-4.26-3.07C262.76,44,262.82,40.53,259.84,38.86Z"/></g><path class="m" d="M45.14,29.28a114.64,114.64,0,0,0-32.3,5.84c-3.78,1.28-8,3.92-6.39,6.67,1.14,1.9,4.46,2.45,7.31,2.75a554.75,554.75,0,0,0,74.84,2.78c7.9-.26,28.69-4,21.25-5.92C87.94,35.75,70.69,26.5,49.41,28.56c-2.11.2-4.21.49-6.33.52"/><g class="n"><path class="o" d="M18.8,13.78c-5.54,0-9.12,3.21-13.34,7.48-2.94,3-7,5.57-4.87,11,2.47,6.28,7.32,8,12.24,8.27,8.63.45,17-1.8,25.64-1.41,6.12.28,12,2.4,17.19-3.12,4.21-4.49,4-9.11.76-14.06-5-7.61-25.17-8.38-29-8.86C24.53,12.7,22.21,13.53,18.8,13.78Z"/><path class="p" d="M48.9,15.19c-3.81-1.51-5.58,4.26-9.29,4.94-3.1.56-6.31,1.61-9.44,1.75-5.91.27-11.52-1.1-17.54,0,4.8-.05,9.54.67,14.3,1.13-2.52,1.06-5.32,2.56-8.12,3.09-3.75.7-8.05.23-11.6,2.14,9.76,1.4,18.42-2.74,27.89-4.61,3.62-.71,6.47-1.34,9.48-4.24,2.38-2.3,4.25-3.24,6.78-5C50.18,13.78,48.54,14.26,48.9,15.19Z"/><path class="q" d="M60.06,15c-4.1.52-9.28,1.35-13.09,3.33-2.77,1.44-4.27,4-6.46,6.5-5,5.78-12.41,5.23-18.58,7.58-5.69,2.17-11.73,6.52-17.68,4.3-3.42-1.27-5.6-2.62-8.95-1.59,1.09,8.48,15.36,9.86,20.35,11,5.61,1.27,9.66-.33,14.87-2.3,2.76-1,5.63-.51,8.45-1.35,3.7-1.11,9.89,1.06,13.73.54,4.78-.65,6.85-5.76,11.52-7.2,1.06-.33,3.79-1,4.46-2.45,1.07-2.35-.58-2.9-1.65-4.63-1.53-2.47-2.35-5.73-4-8.1C61.25,18,59,17.9,60.06,15Z"/><path class="q" d="M63,20.12c-3.47-1.89-5.84.23-8.18,3.35-2.78,3.69-4.92,4.21-8.93,5.12-7.61,1.72-15.12.9-22.75,2.47-6.66,1.36-11.87.37-17-4.58C.05,20.61-5.26,22.43-10.08,30c3.42,1,6.78,3.86,9,7.34C.28,39.43,1,42.11,2.78,43.71c2.4,2.15,6.62,2.62,9.39,2.83,7.57.57,15.9-.12,23.46-.86,5-.49,10.07-1,15-1.91C57.3,42.59,61.34,40.44,62.74,31,63.18,28,65.7,18,63,20.12Z"/></g><g class="r"><path class="o" d="M65.2,30.4c4,0,6.55,2.28,9.6,5.31,2.12,2.11,5,4,3.5,7.8C76.52,48,73,49.2,69.49,49.38c-6.21.32-12.22-1.28-18.44-1-4.4.2-8.63,1.7-12.36-2.22-3-3.19-2.87-6.47-.55-10,3.58-5.4,18.1-6,20.82-6.29C61.09,29.63,62.75,30.22,65.2,30.4Z"/><path class="q" d="M32.76,31.4c3.06-.36,7-.67,10.18.3,2.33.7,4,2.59,6.18,4.34,5,4,10.14,2.07,15.13,2.89,4.6.75,10,3.32,13.7.23,2.15-1.78,3.4-3.37,6-3.13,1.23,7.55-8.68,11.54-12,13.5-3.72,2.2-7,1.62-11.21.95-2.23-.35-4.16.67-6.38.5-2.92-.23-6.84,2.87-9.72,3.17-3.58.38-6.28-3.63-10-4-.84-.07-3-.1-3.78-1.24-1.32-1.82-.28-2.62.08-4.33.51-2.44.32-5.42.93-7.78C32.62,34.25,34.2,33.69,32.76,31.4Z"/><path class="q" d="M33.43,34.9c2.5-1.34,4.2.16,5.88,2.38,2,2.62,3.53,3,6.42,3.64,5.47,1.22,10.87.64,16.36,1.75,4.79,1,8.54.26,12.23-3.25,4.37-4.16,8.19-2.87,11.66,2.48A12.43,12.43,0,0,0,79.5,47.1c-1,1.51-1.49,3.41-2.78,4.55C75,53.17,72,53.51,70,53.66a102.9,102.9,0,0,1-16.87-.61c-3.62-.35-7.24-.73-10.81-1.36-4.77-.84-7.67-2.37-8.68-9.05C33.29,40.51,31.48,33.43,33.43,34.9Z"/><path class="s" d="M43.44,34.23c3.43.78,5.12,4.28,8.76,4.82,1.22.18,2.53-.07,3.76,0a20.55,20.55,0,0,1,4,1c3.43.88,6.68-.46,10.14-.13,2.79.27,3.47-.27,6-1.38-1.66-.05-3.2.4-4.9.22s-3.13-.7-4.71-.51c-4.1.49-7.79-.09-11.92-.2-1.28,0-3.41.11-4.48-.83-.75-.66-.71-1.77-1.39-2.5-2-2.13-6.39-.66-8.69.19C41.87,33.71,43.54,34.82,43.44,34.23Z"/></g></g></svg>