<svg xmlns="http://www.w3.org/2000/svg" viewBox="0 0 256.69 86.65"><defs><style>.a{isolation:isolate;}.b{opacity:0.13;mix-blend-mode:multiply;}</style></defs><title>water-sideburn-left</title><g class="a"><path class="b" d="M74.6,9.37c17.18-2.07,34.44-4,51.28-6.61l-2.17,0c-20.87.26-41.75.7-62.61.07C55.82,2.7,51,1.66,47.9,0,31.93.73,16,1.5,0,2.16V32.62a7,7,0,0,1,1.48-1.24c9.79-6.23,24-10,40.61-11.69C48.83,19,55.66,18.47,62.51,18a3.21,3.21,0,0,1-.34-1.39C62.17,13.27,67.34,10.24,74.6,9.37Z"/><path class="b" d="M224.6,85.77c-9.15-.53-16.94-3-16.94-7.49,0-3.31,5.16-6.37,12.44-7.22,12-1.4,24.26-2,36.59-2.4l-1.37-.06c-25.71-1-51.61-1.24-77.21-2.73-9.15-.53-16.94-3-16.94-7.49a3.23,3.23,0,0,1,.09-.72c-11.93-.37-23.83-1-35.65-2-7.32-.63-12.44-4.08-12.44-7.22a4.21,4.21,0,0,1,1.58-3.13c-34.57.7-69,.71-103.14-2.91C6.16,41.81,1.85,39.79,0,37.44V86.65H247C239.52,86.48,232.06,86.21,224.6,85.77Z"/></g></svg>