<svg xmlns="http://www.w3.org/2000/svg" viewBox="0 0 203.92 111.99"><defs><style>.a{isolation:isolate;}.b{opacity:0.13;mix-blend-mode:multiply;}</style></defs><title>water-sideburn-right</title><g class="a"><path class="b" d="M146.34,50.11c7.77,1.21,13.16,4.82,12.17,8.26l2.49-.06c16.21-.34,24,10.84,8.55,14-39.61,8-82.58,9.84-125.51,11,1.32,2.82-.84,5.87-8,7.54q-8.6,2-17.43,3.81,2.2.18,4.39.41c7.29.77,12.44,4,12.44,7.22,0,3.45-5.22,6.18-12.44,7.22C15.47,110.6,7.78,111.39,0,112H203.92V45.13C184.8,46.94,165.62,48.66,146.34,50.11Z"/><path class="b" d="M154.8,26.2c16.34-.71,33-1.06,49.12.12V0Q202,0,200,.09l-2,.08-2.27.16c-2.19.18-4.37.37-6.53.59-10.11,1.07-20,2.55-29.63,4.25a58.93,58.93,0,0,1,14.9,4.26c6.2,2.85,6.89,7.79,0,10.59A140.8,140.8,0,0,1,154.8,26.2Z"/></g></svg>